<svg xmlns="http://www.w3.org/2000/svg" viewBox="0 0 1200 1200" width="1200" height="1200">
            <path fill="#000000" d="M93.26,23.89a11.2,11.2,0,0,0-2.91-1.84,19.47,19.47,0,0,0-3.69-1.2l-2.76-.66A16.16,16.16,0,0,1,82,19.64a7.56,7.56,0,0,1-1.56-.77,3.35,3.35,0,0,1-1.06-1.06A2.46,2.46,0,0,1,79,16.37a2.93,2.93,0,0,1,.58-1.77,3.79,3.79,0,0,1,1.68-1.22A7.06,7.06,0,0,1,84,12.94a6.14,6.14,0,0,1,3.71,1,3.8,3.8,0,0,1,1.55,2.82h6.23A8.61,8.61,0,0,0,94,11.93a9.52,9.52,0,0,0-4-3.26A14.27,14.27,0,0,0,84,7.5a14.75,14.75,0,0,0-6,1.17,10,10,0,0,0-4.15,3.26,8.07,8.07,0,0,0-1.49,4.88,6.87,6.87,0,0,0,2.24,5.42,14,14,0,0,0,6.14,2.95l3.34.84a17.47,17.47,0,0,1,2.85.91,4.83,4.83,0,0,1,1.77,1.2,2.6,2.6,0,0,1,.61,1.74,3.07,3.07,0,0,1-.68,2,4.38,4.38,0,0,1-1.9,1.34,7.81,7.81,0,0,1-2.87.48,8.12,8.12,0,0,1-3-.52,4.79,4.79,0,0,1-2.12-1.54A4.72,4.72,0,0,1,77.85,29H71.56a10.05,10.05,0,0,0,1.61,5.56A9.43,9.43,0,0,0,77.47,38a16.81,16.81,0,0,0,6.47,1.14A16.49,16.49,0,0,0,90.36,38a9.15,9.15,0,0,0,4.08-3.2,8.49,8.49,0,0,0,1.44-4.89,8.28,8.28,0,0,0-.7-3.4A7.65,7.65,0,0,0,93.26,23.89Z"/>
            <path fill="#000000" d="M110,14.43a7.31,7.31,0,0,1,4.16-1.18,7.72,7.72,0,0,1,2.45.38,6.27,6.27,0,0,1,2,1.08,5.71,5.71,0,0,1,1.42,1.7,6.52,6.52,0,0,1,.74,2.27h6.57a13,13,0,0,0-1.43-4.74,11.32,11.32,0,0,0-2.89-3.5A12.53,12.53,0,0,0,119,8.25a15.82,15.82,0,0,0-5-.75,14.44,14.44,0,0,0-7.3,1.86,13.13,13.13,0,0,0-5.13,5.38,17.88,17.88,0,0,0-1.89,8.55,18,18,0,0,0,1.87,8.54,13.09,13.09,0,0,0,5.1,5.39A14.5,14.5,0,0,0,114,39.08a14.79,14.79,0,0,0,5.31-.89,12.45,12.45,0,0,0,6.77-5.93,12,12,0,0,0,1.26-4.07l-6.57,0a6.57,6.57,0,0,1-.8,2.19A6,6,0,0,1,118.53,32a6.44,6.44,0,0,1-2,1,8.18,8.18,0,0,1-2.42.34,7.39,7.39,0,0,1-4.1-1.14,7.46,7.46,0,0,1-2.76-3.37,13.86,13.86,0,0,1-1-5.53,13.46,13.46,0,0,1,1-5.44A7.62,7.62,0,0,1,110,14.43Z"/>
            <path fill="#000000" d="M140.4,7.92,129.79,38.66h7l2.28-7h11.1l2.28,7h7L148.78,7.92Zm.28,18.66L144.47,15h.24l3.77,11.63Z"/>
            <polygon fill="#000000" points="182.31 27.26 182.04 27.26 168.77 7.92 163.06 7.92 163.06 38.66 169.56 38.66 169.56 19.32 169.79 19.32 183.16 38.66 188.78 38.66 188.78 7.92 182.31 7.92 182.31 27.26"/>
            <polygon fill="#000000" points="220.78 28.58 220.42 28.58 211.96 7.92 203.94 7.92 203.94 38.66 210.25 38.66 210.25 18.58 210.5 18.58 218.46 38.51 222.75 38.51 230.71 18.65 230.96 18.65 230.96 38.66 237.26 38.66 237.26 7.92 229.25 7.92 220.78 28.58"/>
            <polygon fill="#000000" points="249.11 33.3 249.11 25.96 262.26 25.96 262.26 20.61 249.11 20.61 249.11 13.28 263.32 13.28 263.32 7.92 242.61 7.92 242.61 38.66 263.38 38.66 263.38 33.3 249.11 33.3"/>
            <path fill="#000000" d="M381.61,23.89a11.2,11.2,0,0,0-2.91-1.84,19.47,19.47,0,0,0-3.69-1.2l-2.76-.66a16.16,16.16,0,0,1-1.89-.55,7.56,7.56,0,0,1-1.56-.77,3.35,3.35,0,0,1-1.06-1.06,2.46,2.46,0,0,1-.36-1.44A2.93,2.93,0,0,1,368,14.6a3.79,3.79,0,0,1,1.68-1.22,7.06,7.06,0,0,1,2.68-.44,6.14,6.14,0,0,1,3.71,1,3.8,3.8,0,0,1,1.55,2.82h6.23a8.61,8.61,0,0,0-1.47-4.83,9.52,9.52,0,0,0-4-3.26,14.27,14.27,0,0,0-6-1.17,14.71,14.71,0,0,0-6,1.17,10,10,0,0,0-4.15,3.26,8.07,8.07,0,0,0-1.49,4.88A6.87,6.87,0,0,0,363,22.23a14,14,0,0,0,6.14,2.95l3.34.84a17.47,17.47,0,0,1,2.85.91,4.83,4.83,0,0,1,1.77,1.2,2.6,2.6,0,0,1,.61,1.74,3.07,3.07,0,0,1-.68,2,4.38,4.38,0,0,1-1.9,1.34,7.81,7.81,0,0,1-2.87.48,8.12,8.12,0,0,1-3-.52,4.79,4.79,0,0,1-2.12-1.54A4.72,4.72,0,0,1,366.2,29h-6.29a10.05,10.05,0,0,0,1.61,5.56,9.43,9.43,0,0,0,4.3,3.39,16.81,16.81,0,0,0,6.47,1.14A16.49,16.49,0,0,0,378.71,38a9.15,9.15,0,0,0,4.08-3.2,8.49,8.49,0,0,0,1.44-4.89,8.28,8.28,0,0,0-.7-3.4A7.65,7.65,0,0,0,381.61,23.89Z"/>
            <path fill="#000000" d="M398.35,14.43a7.31,7.31,0,0,1,4.16-1.18,7.72,7.72,0,0,1,2.45.38,6.27,6.27,0,0,1,2,1.08,5.71,5.71,0,0,1,1.42,1.7,6.52,6.52,0,0,1,.74,2.27h6.57a13,13,0,0,0-1.43-4.74,11.32,11.32,0,0,0-2.89-3.5,12.53,12.53,0,0,0-4.06-2.19,15.82,15.82,0,0,0-5-.75,14.44,14.44,0,0,0-7.3,1.86,13.13,13.13,0,0,0-5.13,5.38A17.88,17.88,0,0,0,388,23.29a18,18,0,0,0,1.87,8.54,13.09,13.09,0,0,0,5.1,5.39,14.5,14.5,0,0,0,7.35,1.86,14.79,14.79,0,0,0,5.31-.89,12.45,12.45,0,0,0,6.77-5.93,12,12,0,0,0,1.26-4.07l-6.57,0a6.57,6.57,0,0,1-.8,2.19A6,6,0,0,1,406.88,32a6.44,6.44,0,0,1-2,1,8.18,8.18,0,0,1-2.42.34,7.39,7.39,0,0,1-4.1-1.14,7.46,7.46,0,0,1-2.76-3.37,13.86,13.86,0,0,1-1-5.53,13.46,13.46,0,0,1,1-5.44A7.62,7.62,0,0,1,398.35,14.43Z"/>
            <path fill="#000000" d="M428.75,7.92,418.14,38.66h7l2.28-7h11.1l2.28,7h7L437.13,7.92ZM429,26.58,432.82,15h.24l3.77,11.63Z"/>
            <polygon fill="#000000" points="470.66 27.26 470.39 27.26 457.12 7.92 451.42 7.92 451.42 38.66 457.92 38.66 457.92 19.32 458.14 19.32 471.51 38.66 477.13 38.66 477.13 7.92 470.66 7.92 470.66 27.26"/>
            <polygon fill="#000000" points="509.13 28.58 508.77 28.58 500.31 7.92 492.29 7.92 492.29 38.66 498.6 38.66 498.6 18.58 498.85 18.58 506.81 38.51 511.1 38.51 519.05 18.65 519.31 18.65 519.31 38.66 525.61 38.66 525.61 7.92 517.6 7.92 509.13 28.58"/>
            <polygon fill="#000000" points="537.46 33.3 537.46 25.96 550.61 25.96 550.61 20.61 537.46 20.61 537.46 13.28 551.67 13.28 551.67 7.92 530.96 7.92 530.96 38.66 551.73 38.66 551.73 33.3 537.46 33.3"/>
            <circle fill="#000000" cx="311.65" cy="23.29" r="5.28"/>
            <path fill="#000000" d="M670,23.89a11.2,11.2,0,0,0-2.91-1.84,19.47,19.47,0,0,0-3.69-1.2l-2.76-.66a16.16,16.16,0,0,1-1.89-.55,7.56,7.56,0,0,1-1.56-.77,3.35,3.35,0,0,1-1.06-1.06,2.46,2.46,0,0,1-.36-1.44,2.93,2.93,0,0,1,.58-1.77A3.79,3.79,0,0,1,658,13.38a7.06,7.06,0,0,1,2.68-.44,6.14,6.14,0,0,1,3.71,1,3.8,3.8,0,0,1,1.55,2.82h6.23a8.61,8.61,0,0,0-1.47-4.83,9.52,9.52,0,0,0-4-3.26,14.27,14.27,0,0,0-6-1.17,14.71,14.71,0,0,0-6,1.17,10,10,0,0,0-4.15,3.26,8.07,8.07,0,0,0-1.49,4.88,6.87,6.87,0,0,0,2.24,5.42,14,14,0,0,0,6.14,2.95l3.34.84a17.47,17.47,0,0,1,2.85.91,4.83,4.83,0,0,1,1.77,1.2,2.6,2.6,0,0,1,.61,1.74,3.07,3.07,0,0,1-.68,2,4.38,4.38,0,0,1-1.9,1.34,7.81,7.81,0,0,1-2.87.48,8.12,8.12,0,0,1-3-.52,4.79,4.79,0,0,1-2.12-1.54,4.72,4.72,0,0,1-.89-2.58h-6.29a10.05,10.05,0,0,0,1.61,5.56,9.43,9.43,0,0,0,4.3,3.39,16.81,16.81,0,0,0,6.47,1.14A16.49,16.49,0,0,0,667.06,38a9.15,9.15,0,0,0,4.08-3.2,8.49,8.49,0,0,0,1.44-4.89,8.28,8.28,0,0,0-.7-3.4A7.65,7.65,0,0,0,670,23.89Z"/>
            <path fill="#000000" d="M686.7,14.43a7.31,7.31,0,0,1,4.16-1.18,7.72,7.72,0,0,1,2.45.38,6.27,6.27,0,0,1,2,1.08,5.71,5.71,0,0,1,1.42,1.7,6.52,6.52,0,0,1,.74,2.27h6.57a13,13,0,0,0-1.43-4.74,11.32,11.32,0,0,0-2.89-3.5,12.53,12.53,0,0,0-4.06-2.19,15.86,15.86,0,0,0-5-.75,14.44,14.44,0,0,0-7.3,1.86,13.13,13.13,0,0,0-5.13,5.38,17.88,17.88,0,0,0-1.89,8.55,18,18,0,0,0,1.87,8.54,13.09,13.09,0,0,0,5.1,5.39,14.5,14.5,0,0,0,7.35,1.86,14.79,14.79,0,0,0,5.31-.89,12.45,12.45,0,0,0,6.77-5.93,12,12,0,0,0,1.26-4.07l-6.57,0a6.57,6.57,0,0,1-.8,2.19A6,6,0,0,1,695.23,32a6.44,6.44,0,0,1-2,1,8.2,8.2,0,0,1-2.43.34,7.38,7.38,0,0,1-4.09-1.14A7.46,7.46,0,0,1,684,28.82a13.86,13.86,0,0,1-1-5.53,13.46,13.46,0,0,1,1-5.44A7.62,7.62,0,0,1,686.7,14.43Z"/>
            <path fill="#000000" d="M717.1,7.92,706.49,38.66h7l2.28-7h11.1l2.28,7h7L725.48,7.92Zm.28,18.66L721.17,15h.24l3.77,11.63Z"/>
            <polygon fill="#000000" points="759.01 27.26 758.74 27.26 745.47 7.92 739.76 7.92 739.76 38.66 746.26 38.66 746.26 19.32 746.49 19.32 759.87 38.66 765.48 38.66 765.48 7.92 759.01 7.92 759.01 27.26"/>
            <polygon fill="#000000" points="797.48 28.58 797.12 28.58 788.66 7.92 780.64 7.92 780.64 38.66 786.95 38.66 786.95 18.58 787.2 18.58 795.16 38.51 799.45 38.51 807.4 18.65 807.66 18.65 807.66 38.66 813.96 38.66 813.96 7.92 805.95 7.92 797.48 28.58"/>
            <polygon fill="#000000" points="825.81 33.3 825.81 25.96 838.96 25.96 838.96 20.61 825.81 20.61 825.81 13.28 840.02 13.28 840.02 7.92 819.31 7.92 819.31 38.66 840.08 38.66 840.08 33.3 825.81 33.3"/>
            <circle fill="#000000" cx="600" cy="23.29" r="5.28"/>
            <path fill="#000000" d="M958.31,23.89a11.2,11.2,0,0,0-2.91-1.84,19.47,19.47,0,0,0-3.69-1.2L949,20.19a16.16,16.16,0,0,1-1.89-.55,7.56,7.56,0,0,1-1.56-.77,3.25,3.25,0,0,1-1.06-1.06,2.46,2.46,0,0,1-.36-1.44,2.93,2.93,0,0,1,.58-1.77,3.79,3.79,0,0,1,1.68-1.22,7.06,7.06,0,0,1,2.68-.44,6.14,6.14,0,0,1,3.71,1,3.8,3.8,0,0,1,1.55,2.82h6.23A8.61,8.61,0,0,0,959,11.93a9.52,9.52,0,0,0-4-3.26,14.27,14.27,0,0,0-6-1.17,14.71,14.71,0,0,0-6,1.17,10,10,0,0,0-4.15,3.26,8.07,8.07,0,0,0-1.49,4.88,6.84,6.84,0,0,0,2.24,5.42,14,14,0,0,0,6.14,2.95l3.34.84a17.47,17.47,0,0,1,2.85.91,4.83,4.83,0,0,1,1.77,1.2,2.6,2.6,0,0,1,.61,1.74,3.07,3.07,0,0,1-.68,2,4.38,4.38,0,0,1-1.9,1.34,7.81,7.81,0,0,1-2.87.48,8.12,8.12,0,0,1-3-.52,4.79,4.79,0,0,1-2.12-1.54A4.72,4.72,0,0,1,942.9,29h-6.29a10.05,10.05,0,0,0,1.61,5.56,9.43,9.43,0,0,0,4.3,3.39A16.81,16.81,0,0,0,949,39.1,16.49,16.49,0,0,0,955.41,38a9.15,9.15,0,0,0,4.08-3.2,8.49,8.49,0,0,0,1.44-4.89,8.28,8.28,0,0,0-.7-3.4A7.65,7.65,0,0,0,958.31,23.89Z"/>
            <path fill="#000000" d="M975.05,14.43a7.31,7.31,0,0,1,4.16-1.18,7.72,7.72,0,0,1,2.45.38,6.27,6.27,0,0,1,2,1.08,5.71,5.71,0,0,1,1.42,1.7,6.52,6.52,0,0,1,.74,2.27h6.57A13,13,0,0,0,991,13.94a11.32,11.32,0,0,0-2.89-3.5A12.53,12.53,0,0,0,984,8.25a15.86,15.86,0,0,0-5-.75,14.44,14.44,0,0,0-7.3,1.86,13.13,13.13,0,0,0-5.13,5.38,17.88,17.88,0,0,0-1.89,8.55,18,18,0,0,0,1.87,8.54,13.09,13.09,0,0,0,5.1,5.39,14.5,14.5,0,0,0,7.35,1.86,14.79,14.79,0,0,0,5.31-.89,12.45,12.45,0,0,0,6.77-5.93,12,12,0,0,0,1.26-4.07l-6.57,0a6.57,6.57,0,0,1-.8,2.19A6,6,0,0,1,983.58,32a6.44,6.44,0,0,1-2,1,8.2,8.2,0,0,1-2.43.34,7.38,7.38,0,0,1-4.09-1.14,7.46,7.46,0,0,1-2.76-3.37,13.86,13.86,0,0,1-1-5.53,13.64,13.64,0,0,1,1-5.44A7.7,7.7,0,0,1,975.05,14.43Z"/>
            <path fill="#000000" d="M1005.45,7.92,994.84,38.66h7l2.28-7h11.1l2.28,7h7l-10.6-30.74Zm.28,18.66L1009.52,15h.24l3.77,11.63Z"/>
            <polygon fill="#000000" points="1047.36 27.26 1047.09 27.26 1033.82 7.92 1028.12 7.92 1028.12 38.66 1034.62 38.66 1034.62 19.32 1034.84 19.32 1048.21 38.66 1053.83 38.66 1053.83 7.92 1047.36 7.92 1047.36 27.26"/>
            <polygon fill="#000000" points="1085.83 28.58 1085.47 28.58 1077.01 7.92 1068.99 7.92 1068.99 38.66 1075.3 38.66 1075.3 18.58 1075.55 18.58 1083.51 38.51 1087.8 38.51 1095.75 18.65 1096.01 18.65 1096.01 38.66 1102.31 38.66 1102.31 7.92 1094.3 7.92 1085.83 28.58"/>
            <polygon fill="#000000" points="1114.16 33.3 1114.16 25.96 1127.31 25.96 1127.31 20.61 1114.16 20.61 1114.16 13.28 1128.37 13.28 1128.37 7.92 1107.66 7.92 1107.66 38.66 1128.43 38.66 1128.43 33.3 1114.16 33.3"/>
            <circle fill="#000000" cx="888.35" cy="23.29" r="5.28"/>
            <circle fill="#000000" cx="23.3" cy="23.29" r="5.28"/>
            <circle fill="#000000" cx="1176.7" cy="23.29" r="5.28"/>
            <path fill="#000000" d="M1176.1,93.28a11.12,11.12,0,0,0,1.85-2.92,19.47,19.47,0,0,0,1.2-3.69l.66-2.76a14.43,14.43,0,0,1,.55-1.89,7.55,7.55,0,0,1,.76-1.56,3.45,3.45,0,0,1,1.06-1.06,2.45,2.45,0,0,1,1.44-.35,2.92,2.92,0,0,1,1.77.57,3.8,3.8,0,0,1,1.23,1.68,7.26,7.26,0,0,1,.44,2.68,6.12,6.12,0,0,1-1,3.71,3.84,3.84,0,0,1-2.83,1.55v6.23a8.64,8.64,0,0,0,4.84-1.47,9.43,9.43,0,0,0,3.25-4,14.09,14.09,0,0,0,1.17-6,14.5,14.5,0,0,0-1.17-6,10,10,0,0,0-3.25-4.16,8.07,8.07,0,0,0-4.88-1.49,6.87,6.87,0,0,0-5.42,2.24,14.05,14.05,0,0,0-3,6.14l-.84,3.35a18.42,18.42,0,0,1-.9,2.84,4.66,4.66,0,0,1-1.2,1.77,2.55,2.55,0,0,1-1.74.61,3.1,3.1,0,0,1-2-.68,4.37,4.37,0,0,1-1.33-1.9,7.81,7.81,0,0,1-.48-2.87,8.37,8.37,0,0,1,.51-3,4.81,4.81,0,0,1,1.55-2.12,4.69,4.69,0,0,1,2.57-.89V71.57a10.08,10.08,0,0,0-5.56,1.61,9.48,9.48,0,0,0-3.38,4.3A16.81,16.81,0,0,0,1160.9,84a16.24,16.24,0,0,0,1.13,6.42,9.08,9.08,0,0,0,3.2,4.08,8.44,8.44,0,0,0,4.88,1.44,8.17,8.17,0,0,0,3.41-.7A7.68,7.68,0,0,0,1176.1,93.28Z"/>
            <path fill="#000000" d="M1185.57,110a7.38,7.38,0,0,1,1.18,4.16,7.83,7.83,0,0,1-.38,2.46,6.33,6.33,0,0,1-1.08,2,5.87,5.87,0,0,1-1.7,1.43,6.57,6.57,0,0,1-2.28.73v6.58a13.14,13.14,0,0,0,4.75-1.44,11.43,11.43,0,0,0,3.5-2.89,12.5,12.5,0,0,0,2.18-4.06,15.82,15.82,0,0,0,.75-5,14.37,14.37,0,0,0-1.85-7.29,13.15,13.15,0,0,0-5.38-5.14,20.38,20.38,0,0,0-17.1,0,13.22,13.22,0,0,0-5.39,5.1,14.5,14.5,0,0,0-1.86,7.35,15,15,0,0,0,.89,5.31,12.73,12.73,0,0,0,2.44,4,12.3,12.3,0,0,0,3.49,2.72,12.1,12.1,0,0,0,4.08,1.27l0-6.58a6.57,6.57,0,0,1-2.19-.8,5.82,5.82,0,0,1-1.63-1.45,6.13,6.13,0,0,1-1-2,8.13,8.13,0,0,1-.35-2.42,7.41,7.41,0,0,1,1.14-4.1,7.49,7.49,0,0,1,3.38-2.76,13.81,13.81,0,0,1,5.52-1,13.57,13.57,0,0,1,5.44,1A7.64,7.64,0,0,1,1185.57,110Z"/>
            <path fill="#000000" d="M1192.07,140.41l-30.74-10.61v7l7,2.28v11.1l-7,2.28v7l30.74-10.59Zm-18.65.28,11.63,3.79v.24l-11.63,3.78Z"/>
            <polygon fill="#000000" points="1172.74 182.32 1172.74 182.05 1192.08 168.78 1192.08 163.08 1161.33 163.08 1161.33 169.58 1180.68 169.58 1180.68 169.8 1161.33 183.18 1161.33 188.79 1192.08 188.79 1192.08 182.32 1172.74 182.32"/>
            <polygon fill="#000000" points="1171.42 220.79 1171.42 220.43 1192.08 211.97 1192.08 203.95 1161.33 203.95 1161.33 210.26 1181.42 210.26 1181.42 210.51 1161.48 218.47 1161.48 222.76 1181.34 230.72 1181.34 230.97 1161.33 230.97 1161.33 237.28 1192.08 237.28 1192.08 229.26 1171.42 220.79"/>
            <polygon fill="#000000" points="1166.69 249.12 1174.03 249.12 1174.03 262.27 1179.39 262.27 1179.39 249.12 1186.72 249.12 1186.72 263.33 1192.08 263.33 1192.08 242.62 1161.33 242.62 1161.33 263.39 1166.69 263.39 1166.69 249.12"/>
            <path fill="#000000" d="M1176.1,381.63a11.12,11.12,0,0,0,1.85-2.92,19.47,19.47,0,0,0,1.2-3.69l.66-2.76a14.43,14.43,0,0,1,.55-1.89,7.55,7.55,0,0,1,.76-1.56,3.45,3.45,0,0,1,1.06-1.06,2.45,2.45,0,0,1,1.44-.35,2.92,2.92,0,0,1,1.77.57,3.8,3.8,0,0,1,1.23,1.68,7.26,7.26,0,0,1,.44,2.68,6.12,6.12,0,0,1-1,3.71,3.84,3.84,0,0,1-2.83,1.55v6.23a8.64,8.64,0,0,0,4.84-1.47,9.43,9.43,0,0,0,3.25-4,14.09,14.09,0,0,0,1.17-6,14.5,14.5,0,0,0-1.17-6,10,10,0,0,0-3.25-4.16,8.07,8.07,0,0,0-4.88-1.49,6.87,6.87,0,0,0-5.42,2.24,14.05,14.05,0,0,0-3,6.14l-.84,3.34a18.23,18.23,0,0,1-.9,2.85,4.74,4.74,0,0,1-1.2,1.77,2.55,2.55,0,0,1-1.74.61,3.1,3.1,0,0,1-2-.68,4.37,4.37,0,0,1-1.33-1.9,7.81,7.81,0,0,1-.48-2.87,8.37,8.37,0,0,1,.51-3,4.81,4.81,0,0,1,1.55-2.12,4.69,4.69,0,0,1,2.57-.89v-6.29a10.08,10.08,0,0,0-5.56,1.61,9.48,9.48,0,0,0-3.38,4.3,16.81,16.81,0,0,0-1.14,6.47,16.24,16.24,0,0,0,1.13,6.42,9.08,9.08,0,0,0,3.2,4.08,8.44,8.44,0,0,0,4.88,1.44,8.17,8.17,0,0,0,3.41-.7A7.68,7.68,0,0,0,1176.1,381.63Z"/>
            <path fill="#000000" d="M1185.57,398.36a7.38,7.38,0,0,1,1.18,4.16,7.83,7.83,0,0,1-.38,2.46,6.33,6.33,0,0,1-1.08,2,5.87,5.87,0,0,1-1.7,1.43,6.57,6.57,0,0,1-2.28.73v6.58a13.14,13.14,0,0,0,4.75-1.44,11.43,11.43,0,0,0,3.5-2.89,12.5,12.5,0,0,0,2.18-4.06,15.82,15.82,0,0,0,.75-5,14.37,14.37,0,0,0-1.85-7.29,13.15,13.15,0,0,0-5.38-5.14,20.38,20.38,0,0,0-17.1,0,13.22,13.22,0,0,0-5.39,5.1,14.5,14.5,0,0,0-1.86,7.35,15,15,0,0,0,.89,5.31,12.84,12.84,0,0,0,2.44,4.05,12.3,12.3,0,0,0,3.49,2.72,12.1,12.1,0,0,0,4.08,1.27l0-6.58a6.57,6.57,0,0,1-2.19-.8,5.82,5.82,0,0,1-1.63-1.45,6.13,6.13,0,0,1-1-2,8.18,8.18,0,0,1-.35-2.42,7.41,7.41,0,0,1,1.14-4.1,7.49,7.49,0,0,1,3.38-2.76,13.81,13.81,0,0,1,5.52-1,13.57,13.57,0,0,1,5.44,1A7.64,7.64,0,0,1,1185.57,398.36Z"/>
            <path fill="#000000" d="M1192.07,428.76l-30.74-10.61v7l7,2.28v11.1l-7,2.28v7l30.74-10.59Zm-18.65.28,11.63,3.79v.24l-11.63,3.78Z"/>
            <polygon fill="#000000" points="1172.74 470.67 1172.74 470.4 1192.08 457.13 1192.08 451.43 1161.33 451.43 1161.33 457.93 1180.68 457.93 1180.68 458.15 1161.33 471.53 1161.33 477.14 1192.08 477.14 1192.08 470.67 1172.74 470.67"/>
            <polygon fill="#000000" points="1171.42 509.14 1171.42 508.78 1192.08 500.32 1192.08 492.3 1161.33 492.3 1161.33 498.61 1181.42 498.61 1181.42 498.86 1161.48 506.82 1161.48 511.11 1181.34 519.07 1181.34 519.32 1161.33 519.32 1161.33 525.63 1192.08 525.63 1192.08 517.61 1171.42 509.14"/>
            <polygon fill="#000000" points="1166.69 537.47 1174.03 537.47 1174.03 550.62 1179.39 550.62 1179.39 537.47 1186.72 537.47 1186.72 551.68 1192.08 551.68 1192.08 530.97 1161.33 530.97 1161.33 551.75 1166.69 551.75 1166.69 537.47"/>
            <circle fill="#000000" cx="1176.7" cy="311.66" r="5.28"/>
            <path fill="#000000" d="M1176.1,670a11.28,11.28,0,0,0,1.85-2.92,19.47,19.47,0,0,0,1.2-3.69l.66-2.76a14.43,14.43,0,0,1,.55-1.89,7.55,7.55,0,0,1,.76-1.56,3.45,3.45,0,0,1,1.06-1.06,2.45,2.45,0,0,1,1.44-.35,2.92,2.92,0,0,1,1.77.57,3.8,3.8,0,0,1,1.23,1.68,7.26,7.26,0,0,1,.44,2.68,6.12,6.12,0,0,1-1,3.71,3.84,3.84,0,0,1-2.83,1.55v6.23a8.64,8.64,0,0,0,4.84-1.47,9.43,9.43,0,0,0,3.25-4,14.09,14.09,0,0,0,1.17-6,14.5,14.5,0,0,0-1.17-6,10,10,0,0,0-3.25-4.16,8.07,8.07,0,0,0-4.88-1.49,6.87,6.87,0,0,0-5.42,2.24,14.05,14.05,0,0,0-3,6.14l-.84,3.34a18.23,18.23,0,0,1-.9,2.85,4.74,4.74,0,0,1-1.2,1.77,2.55,2.55,0,0,1-1.74.61,3.1,3.1,0,0,1-2-.68,4.37,4.37,0,0,1-1.33-1.9,7.81,7.81,0,0,1-.48-2.87,8.37,8.37,0,0,1,.51-3,4.81,4.81,0,0,1,1.55-2.12,4.69,4.69,0,0,1,2.57-.89v-6.29a10.08,10.08,0,0,0-5.56,1.61,9.48,9.48,0,0,0-3.38,4.3,16.81,16.81,0,0,0-1.14,6.47,16.24,16.24,0,0,0,1.13,6.42,9.08,9.08,0,0,0,3.2,4.08,8.44,8.44,0,0,0,4.88,1.44,8.17,8.17,0,0,0,3.41-.7A7.68,7.68,0,0,0,1176.1,670Z"/>
            <path fill="#000000" d="M1185.57,686.71a7.38,7.38,0,0,1,1.18,4.16,7.83,7.83,0,0,1-.38,2.46,6.33,6.33,0,0,1-1.08,2,5.87,5.87,0,0,1-1.7,1.43,6.57,6.57,0,0,1-2.28.73v6.58a13.14,13.14,0,0,0,4.75-1.44,11.43,11.43,0,0,0,3.5-2.89,12.5,12.5,0,0,0,2.18-4.06,15.82,15.82,0,0,0,.75-5,14.37,14.37,0,0,0-1.85-7.29,13.15,13.15,0,0,0-5.38-5.14,20.38,20.38,0,0,0-17.1,0,13.22,13.22,0,0,0-5.39,5.1,14.5,14.5,0,0,0-1.86,7.35,15,15,0,0,0,.89,5.31,12.84,12.84,0,0,0,2.44,4.05,12.3,12.3,0,0,0,3.49,2.72,12.1,12.1,0,0,0,4.08,1.27l0-6.58a6.57,6.57,0,0,1-2.19-.8,5.82,5.82,0,0,1-1.63-1.45,6.13,6.13,0,0,1-1-2,8.18,8.18,0,0,1-.35-2.42,7.41,7.41,0,0,1,1.14-4.1,7.49,7.49,0,0,1,3.38-2.76,13.81,13.81,0,0,1,5.52-1,13.57,13.57,0,0,1,5.44,1A7.64,7.64,0,0,1,1185.57,686.71Z"/>
            <path fill="#000000" d="M1192.07,717.11l-30.74-10.61v7l7,2.28v11.1l-7,2.28v7l30.74-10.59Zm-18.65.28,11.63,3.79v.24l-11.63,3.78Z"/>
            <polygon fill="#000000" points="1172.74 759.02 1172.74 758.75 1192.08 745.48 1192.08 739.78 1161.33 739.78 1161.33 746.28 1180.68 746.28 1180.68 746.5 1161.33 759.88 1161.33 765.49 1192.08 765.49 1192.08 759.02 1172.74 759.02"/>
            <polygon fill="#000000" points="1171.42 797.49 1171.42 797.13 1192.08 788.67 1192.08 780.65 1161.33 780.65 1161.33 786.96 1181.42 786.96 1181.42 787.21 1161.48 795.17 1161.48 799.46 1181.34 807.42 1181.34 807.67 1161.33 807.67 1161.33 813.98 1192.08 813.98 1192.08 805.96 1171.42 797.49"/>
            <polygon fill="#000000" points="1166.69 825.82 1174.03 825.82 1174.03 838.97 1179.39 838.97 1179.39 825.82 1186.72 825.82 1186.72 840.03 1192.08 840.03 1192.08 819.32 1161.33 819.32 1161.33 840.1 1166.69 840.1 1166.69 825.82"/>
            <circle fill="#000000" cx="1176.7" cy="600.01" r="5.28"/>
            <path fill="#000000" d="M1176.1,958.33a11.28,11.28,0,0,0,1.85-2.92,19.47,19.47,0,0,0,1.2-3.69l.66-2.76a14.43,14.43,0,0,1,.55-1.89,7.55,7.55,0,0,1,.76-1.56,3.45,3.45,0,0,1,1.06-1.06,2.45,2.45,0,0,1,1.44-.35,2.92,2.92,0,0,1,1.77.57,3.8,3.8,0,0,1,1.23,1.68,7.26,7.26,0,0,1,.44,2.68,6.12,6.12,0,0,1-1,3.71,3.84,3.84,0,0,1-2.83,1.55v6.23a8.64,8.64,0,0,0,4.84-1.47,9.43,9.43,0,0,0,3.25-4,14.09,14.09,0,0,0,1.17-6,14.58,14.58,0,0,0-1.17-6,10,10,0,0,0-3.25-4.15,8.07,8.07,0,0,0-4.88-1.49,6.87,6.87,0,0,0-5.42,2.24,14.05,14.05,0,0,0-3,6.14l-.84,3.34a18.23,18.23,0,0,1-.9,2.85,4.74,4.74,0,0,1-1.2,1.77,2.55,2.55,0,0,1-1.74.61,3.1,3.1,0,0,1-2-.68,4.37,4.37,0,0,1-1.33-1.9,7.81,7.81,0,0,1-.48-2.87,8.37,8.37,0,0,1,.51-3,4.81,4.81,0,0,1,1.55-2.12,4.69,4.69,0,0,1,2.57-.89v-6.29a10.08,10.08,0,0,0-5.56,1.61,9.48,9.48,0,0,0-3.38,4.3,16.81,16.81,0,0,0-1.14,6.47,16.24,16.24,0,0,0,1.13,6.42,9.08,9.08,0,0,0,3.2,4.08,8.44,8.44,0,0,0,4.88,1.44,8.17,8.17,0,0,0,3.41-.7A7.82,7.82,0,0,0,1176.1,958.33Z"/>
            <path fill="#000000" d="M1185.57,975.06a7.38,7.38,0,0,1,1.18,4.16,7.83,7.83,0,0,1-.38,2.46,6.33,6.33,0,0,1-1.08,2,5.87,5.87,0,0,1-1.7,1.43,6.57,6.57,0,0,1-2.28.73v6.58a13.14,13.14,0,0,0,4.75-1.44,11.43,11.43,0,0,0,3.5-2.89,12.5,12.5,0,0,0,2.18-4.06,15.82,15.82,0,0,0,.75-5,14.37,14.37,0,0,0-1.85-7.29,13.15,13.15,0,0,0-5.38-5.14,20.38,20.38,0,0,0-17.1,0,13.22,13.22,0,0,0-5.39,5.1,14.5,14.5,0,0,0-1.86,7.35,15,15,0,0,0,.89,5.31,12.84,12.84,0,0,0,2.44,4,12.3,12.3,0,0,0,3.49,2.72,12.1,12.1,0,0,0,4.08,1.27l0-6.58a6.57,6.57,0,0,1-2.19-.8,5.82,5.82,0,0,1-1.63-1.45,6.13,6.13,0,0,1-1-2,8.18,8.18,0,0,1-.35-2.42,7.41,7.41,0,0,1,1.14-4.1,7.49,7.49,0,0,1,3.38-2.76,13.81,13.81,0,0,1,5.52-1,13.57,13.57,0,0,1,5.44,1A7.64,7.64,0,0,1,1185.57,975.06Z"/>
            <path fill="#000000" d="M1192.07,1005.46l-30.74-10.61v7l7,2.28v11.1l-7,2.28v7l30.74-10.59Zm-18.65.28,11.63,3.79v.24l-11.63,3.78Z"/>
            <polygon fill="#000000" points="1172.74 1047.37 1172.74 1047.1 1192.08 1033.83 1192.08 1028.13 1161.33 1028.13 1161.33 1034.63 1180.68 1034.63 1180.68 1034.85 1161.33 1048.23 1161.33 1053.84 1192.08 1053.84 1192.08 1047.37 1172.74 1047.37"/>
            <polygon fill="#000000" points="1171.42 1085.84 1171.42 1085.48 1192.08 1077.02 1192.08 1069 1161.33 1069 1161.33 1075.31 1181.42 1075.31 1181.42 1075.56 1161.48 1083.52 1161.48 1087.81 1181.34 1095.77 1181.34 1096.02 1161.33 1096.02 1161.33 1102.33 1192.08 1102.33 1192.08 1094.31 1171.42 1085.84"/>
            <polygon fill="#000000" points="1166.69 1114.17 1174.03 1114.17 1174.03 1127.32 1179.39 1127.32 1179.39 1114.17 1186.72 1114.17 1186.72 1128.38 1192.08 1128.38 1192.08 1107.67 1161.33 1107.67 1161.33 1128.44 1166.69 1128.44 1166.69 1114.17"/>
            <circle fill="#000000" cx="1176.7" cy="888.36" r="5.28"/>
            <circle fill="#000000" cx="1176.7" cy="1176.71" r="5.28"/>
            <path fill="#000000" d="M1106.74,1176.11a11.2,11.2,0,0,0,2.91,1.84,19.47,19.47,0,0,0,3.69,1.2l2.76.66a16.16,16.16,0,0,1,1.89.55,7.56,7.56,0,0,1,1.56.77,3.35,3.35,0,0,1,1.06,1.06,2.46,2.46,0,0,1,.36,1.44,2.93,2.93,0,0,1-.58,1.77,3.79,3.79,0,0,1-1.68,1.22,7.06,7.06,0,0,1-2.68.44,6.14,6.14,0,0,1-3.71-1,3.8,3.8,0,0,1-1.55-2.82h-6.23a8.61,8.61,0,0,0,1.47,4.83,9.52,9.52,0,0,0,4,3.26,14.27,14.27,0,0,0,6,1.17,14.75,14.75,0,0,0,6-1.17,10,10,0,0,0,4.15-3.26,8.07,8.07,0,0,0,1.49-4.88,6.87,6.87,0,0,0-2.24-5.42,14,14,0,0,0-6.14-3l-3.34-.84a17.47,17.47,0,0,1-2.85-.91,4.83,4.83,0,0,1-1.77-1.2,2.6,2.6,0,0,1-.61-1.74,3.07,3.07,0,0,1,.68-2,4.38,4.38,0,0,1,1.9-1.34,7.81,7.81,0,0,1,2.87-.48,8.12,8.12,0,0,1,3,.52,4.79,4.79,0,0,1,2.12,1.54,4.72,4.72,0,0,1,.89,2.58h6.29a10.05,10.05,0,0,0-1.61-5.56,9.43,9.43,0,0,0-4.3-3.39,16.81,16.81,0,0,0-6.47-1.14,16.49,16.49,0,0,0-6.42,1.13,9.15,9.15,0,0,0-4.08,3.2,8.49,8.49,0,0,0-1.44,4.89,8.28,8.28,0,0,0,.7,3.4A7.65,7.65,0,0,0,1106.74,1176.11Z"/>
            <path fill="#000000" d="M1090,1185.57a7.31,7.31,0,0,1-4.16,1.18,7.72,7.72,0,0,1-2.45-.38,6.27,6.27,0,0,1-2-1.08,5.71,5.71,0,0,1-1.42-1.7,6.52,6.52,0,0,1-.74-2.27h-6.57a13,13,0,0,0,1.43,4.74,11.32,11.32,0,0,0,2.89,3.5,12.53,12.53,0,0,0,4.06,2.19,15.82,15.82,0,0,0,5,.75,14.44,14.44,0,0,0,7.3-1.86,13.13,13.13,0,0,0,5.13-5.38,20.36,20.36,0,0,0,0-17.09,13.09,13.09,0,0,0-5.1-5.39,14.5,14.5,0,0,0-7.35-1.86,14.79,14.79,0,0,0-5.31.89,12.45,12.45,0,0,0-6.77,5.93,12,12,0,0,0-1.26,4.07l6.57,0a6.57,6.57,0,0,1,.8-2.19,6,6,0,0,1,1.45-1.63,6.44,6.44,0,0,1,2-1,8.18,8.18,0,0,1,2.42-.34,7.39,7.39,0,0,1,4.1,1.14,7.46,7.46,0,0,1,2.76,3.37,13.86,13.86,0,0,1,1,5.53,13.46,13.46,0,0,1-1,5.44A7.62,7.62,0,0,1,1090,1185.57Z"/>
            <path fill="#000000" d="M1059.6,1192.08l10.61-30.74h-7l-2.28,7h-11.1l-2.28-7h-7l10.59,30.74Zm-.28-18.66-3.79,11.63h-.24l-3.77-11.63Z"/>
            <polygon fill="#000000" points="1017.69 1172.74 1017.96 1172.74 1031.23 1192.08 1036.93 1192.08 1036.93 1161.34 1030.43 1161.34 1030.43 1180.68 1030.21 1180.68 1016.84 1161.34 1011.22 1161.34 1011.22 1192.08 1017.69 1192.08 1017.69 1172.74"/>
            <polygon fill="#000000" points="979.22 1171.42 979.58 1171.42 988.04 1192.08 996.06 1192.08 996.06 1161.34 989.75 1161.34 989.75 1181.42 989.5 1181.42 981.54 1161.49 977.25 1161.49 969.29 1181.35 969.04 1181.35 969.04 1161.34 962.74 1161.34 962.74 1192.08 970.75 1192.08 979.22 1171.42"/>
            <polygon fill="#000000" points="950.89 1166.69 950.89 1174.04 937.74 1174.04 937.74 1179.39 950.89 1179.39 950.89 1186.72 936.68 1186.72 936.68 1192.08 957.39 1192.08 957.39 1161.34 936.62 1161.34 936.62 1166.69 950.89 1166.69"/>
            <path fill="#000000" d="M818.39,1176.11a11.2,11.2,0,0,0,2.91,1.84,19.47,19.47,0,0,0,3.69,1.2l2.76.66a16.16,16.16,0,0,1,1.89.55,7.56,7.56,0,0,1,1.56.77,3.35,3.35,0,0,1,1.06,1.06,2.46,2.46,0,0,1,.36,1.44,2.93,2.93,0,0,1-.58,1.77,3.79,3.79,0,0,1-1.68,1.22,7.06,7.06,0,0,1-2.68.44,6.14,6.14,0,0,1-3.71-1,3.8,3.8,0,0,1-1.55-2.82h-6.23a8.61,8.61,0,0,0,1.47,4.83,9.52,9.52,0,0,0,4,3.26,14.27,14.27,0,0,0,6,1.17,14.71,14.71,0,0,0,6-1.17,10,10,0,0,0,4.15-3.26,8.07,8.07,0,0,0,1.49-4.88,6.87,6.87,0,0,0-2.24-5.42,14,14,0,0,0-6.14-3l-3.34-.84a17.47,17.47,0,0,1-2.85-.91,4.83,4.83,0,0,1-1.77-1.2,2.6,2.6,0,0,1-.61-1.74,3.07,3.07,0,0,1,.68-2,4.38,4.38,0,0,1,1.9-1.34,7.81,7.81,0,0,1,2.87-.48,8.12,8.12,0,0,1,3,.52,4.79,4.79,0,0,1,2.12,1.54,4.72,4.72,0,0,1,.89,2.58h6.29a10.05,10.05,0,0,0-1.61-5.56,9.43,9.43,0,0,0-4.3-3.39,16.81,16.81,0,0,0-6.47-1.14,16.49,16.49,0,0,0-6.42,1.13,9.15,9.15,0,0,0-4.08,3.2,8.49,8.49,0,0,0-1.44,4.89,8.28,8.28,0,0,0,.7,3.4A7.65,7.65,0,0,0,818.39,1176.11Z"/>
            <path fill="#000000" d="M801.65,1185.57a7.31,7.31,0,0,1-4.16,1.18,7.72,7.72,0,0,1-2.45-.38,6.27,6.27,0,0,1-2-1.08,5.71,5.71,0,0,1-1.42-1.7,6.52,6.52,0,0,1-.74-2.27H784.3a13,13,0,0,0,1.43,4.74,11.32,11.32,0,0,0,2.89,3.5,12.53,12.53,0,0,0,4.06,2.19,15.82,15.82,0,0,0,5,.75,14.44,14.44,0,0,0,7.3-1.86,13.13,13.13,0,0,0,5.13-5.38,20.36,20.36,0,0,0,0-17.09,13.09,13.09,0,0,0-5.1-5.39,14.5,14.5,0,0,0-7.35-1.86,14.79,14.79,0,0,0-5.31.89,12.45,12.45,0,0,0-6.77,5.93,12,12,0,0,0-1.26,4.07l6.57,0a6.57,6.57,0,0,1,.8-2.19,6,6,0,0,1,1.45-1.63,6.44,6.44,0,0,1,2-1,8.18,8.18,0,0,1,2.42-.34,7.39,7.39,0,0,1,4.1,1.14,7.46,7.46,0,0,1,2.76,3.37,13.86,13.86,0,0,1,1,5.53,13.46,13.46,0,0,1-1,5.44A7.62,7.62,0,0,1,801.65,1185.57Z"/>
            <path fill="#000000" d="M771.25,1192.08l10.61-30.74h-7l-2.28,7h-11.1l-2.28-7h-7l10.59,30.74Zm-.28-18.66-3.79,11.63h-.24l-3.77-11.63Z"/>
            <polygon fill="#000000" points="729.34 1172.74 729.61 1172.74 742.88 1192.08 748.59 1192.08 748.59 1161.34 742.09 1161.34 742.09 1180.68 741.86 1180.68 728.49 1161.34 722.87 1161.34 722.87 1192.08 729.34 1192.08 729.34 1172.74"/>
            <polygon fill="#000000" points="690.87 1171.42 691.23 1171.42 699.69 1192.08 707.71 1192.08 707.71 1161.34 701.4 1161.34 701.4 1181.42 701.15 1181.42 693.19 1161.49 688.9 1161.49 680.95 1181.35 680.69 1181.35 680.69 1161.34 674.39 1161.34 674.39 1192.08 682.4 1192.08 690.87 1171.42"/>
            <polygon fill="#000000" points="662.54 1166.69 662.54 1174.04 649.39 1174.04 649.39 1179.39 662.54 1179.39 662.54 1186.72 648.33 1186.72 648.33 1192.08 669.04 1192.08 669.04 1161.34 648.27 1161.34 648.27 1166.69 662.54 1166.69"/>
            <circle fill="#000000" cx="888.35" cy="1176.71" r="5.28"/>
            <path fill="#000000" d="M530,1176.11A11.2,11.2,0,0,0,533,1178a19.47,19.47,0,0,0,3.69,1.2l2.76.66a16.16,16.16,0,0,1,1.89.55,7.56,7.56,0,0,1,1.56.77,3.35,3.35,0,0,1,1.06,1.06,2.46,2.46,0,0,1,.36,1.44,2.93,2.93,0,0,1-.58,1.77,3.79,3.79,0,0,1-1.68,1.22,7.06,7.06,0,0,1-2.68.44,6.14,6.14,0,0,1-3.71-1,3.8,3.8,0,0,1-1.55-2.82h-6.23a8.61,8.61,0,0,0,1.47,4.83,9.52,9.52,0,0,0,4,3.26,14.27,14.27,0,0,0,6,1.17,14.71,14.71,0,0,0,6-1.17,10,10,0,0,0,4.15-3.26,8.07,8.07,0,0,0,1.49-4.88,6.87,6.87,0,0,0-2.24-5.42,14,14,0,0,0-6.14-3l-3.34-.84a17.47,17.47,0,0,1-2.85-.91,4.83,4.83,0,0,1-1.77-1.2,2.6,2.6,0,0,1-.61-1.74,3.07,3.07,0,0,1,.68-2,4.38,4.38,0,0,1,1.9-1.34,7.81,7.81,0,0,1,2.87-.48,8.12,8.12,0,0,1,3,.52,4.79,4.79,0,0,1,2.12,1.54,4.72,4.72,0,0,1,.89,2.58h6.29a10.05,10.05,0,0,0-1.61-5.56,9.43,9.43,0,0,0-4.3-3.39,16.81,16.81,0,0,0-6.47-1.14,16.49,16.49,0,0,0-6.42,1.13,9.15,9.15,0,0,0-4.08,3.2,8.49,8.49,0,0,0-1.44,4.89,8.28,8.28,0,0,0,.7,3.4A7.65,7.65,0,0,0,530,1176.11Z"/>
            <path fill="#000000" d="M513.3,1185.57a7.31,7.31,0,0,1-4.16,1.18,7.72,7.72,0,0,1-2.45-.38,6.27,6.27,0,0,1-2-1.08,5.71,5.71,0,0,1-1.42-1.7,6.52,6.52,0,0,1-.74-2.27H496a13,13,0,0,0,1.43,4.74,11.32,11.32,0,0,0,2.89,3.5,12.53,12.53,0,0,0,4.06,2.19,15.86,15.86,0,0,0,5,.75,14.44,14.44,0,0,0,7.3-1.86,13.13,13.13,0,0,0,5.13-5.38,20.36,20.36,0,0,0,0-17.09,13.09,13.09,0,0,0-5.1-5.39,14.5,14.5,0,0,0-7.35-1.86,14.79,14.79,0,0,0-5.31.89,12.45,12.45,0,0,0-6.77,5.93,12,12,0,0,0-1.26,4.07l6.57,0a6.57,6.57,0,0,1,.8-2.19,6,6,0,0,1,1.45-1.63,6.44,6.44,0,0,1,2-1,8.2,8.2,0,0,1,2.43-.34,7.38,7.38,0,0,1,4.09,1.14,7.46,7.46,0,0,1,2.76,3.37,13.86,13.86,0,0,1,1,5.53,13.46,13.46,0,0,1-1,5.44A7.62,7.62,0,0,1,513.3,1185.57Z"/>
            <path fill="#000000" d="M482.9,1192.08l10.61-30.74h-7l-2.28,7h-11.1l-2.28-7h-7l10.59,30.74Zm-.28-18.66-3.79,11.63h-.24l-3.77-11.63Z"/>
            <polygon fill="#000000" points="440.99 1172.74 441.26 1172.74 454.53 1192.08 460.24 1192.08 460.24 1161.34 453.74 1161.34 453.74 1180.68 453.51 1180.68 440.13 1161.34 434.52 1161.34 434.52 1192.08 440.99 1192.08 440.99 1172.74"/>
            <polygon fill="#000000" points="402.52 1171.42 402.88 1171.42 411.34 1192.08 419.36 1192.08 419.36 1161.34 413.06 1161.34 413.06 1181.42 412.8 1181.42 404.84 1161.49 400.55 1161.49 392.6 1181.35 392.34 1181.35 392.34 1161.34 386.04 1161.34 386.04 1192.08 394.05 1192.08 402.52 1171.42"/>
            <polygon fill="#000000" points="374.19 1166.69 374.19 1174.04 361.04 1174.04 361.04 1179.39 374.19 1179.39 374.19 1186.72 359.98 1186.72 359.98 1192.08 380.69 1192.08 380.69 1161.34 359.92 1161.34 359.92 1166.69 374.19 1166.69"/>
            <circle fill="#000000" cx="600" cy="1176.71" r="5.28"/>
            <path fill="#000000" d="M241.69,1176.11a11.2,11.2,0,0,0,2.91,1.84,19.47,19.47,0,0,0,3.69,1.2l2.76.66a16.16,16.16,0,0,1,1.89.55,7.56,7.56,0,0,1,1.56.77,3.25,3.25,0,0,1,1.06,1.06,2.46,2.46,0,0,1,.36,1.44,2.93,2.93,0,0,1-.58,1.77,3.79,3.79,0,0,1-1.68,1.22,7.06,7.06,0,0,1-2.68.44,6.14,6.14,0,0,1-3.71-1,3.8,3.8,0,0,1-1.55-2.82h-6.23a8.61,8.61,0,0,0,1.47,4.83,9.52,9.52,0,0,0,4,3.26,14.27,14.27,0,0,0,6,1.17,14.71,14.71,0,0,0,6-1.17,10,10,0,0,0,4.15-3.26,8.07,8.07,0,0,0,1.49-4.88,6.84,6.84,0,0,0-2.24-5.42,14,14,0,0,0-6.14-3l-3.34-.84a17.47,17.47,0,0,1-2.85-.91,4.83,4.83,0,0,1-1.77-1.2,2.6,2.6,0,0,1-.61-1.74,3.07,3.07,0,0,1,.68-2,4.38,4.38,0,0,1,1.9-1.34,7.81,7.81,0,0,1,2.87-.48,8.12,8.12,0,0,1,3,.52,4.79,4.79,0,0,1,2.12,1.54,4.72,4.72,0,0,1,.89,2.58h6.29a10.05,10.05,0,0,0-1.61-5.56,9.43,9.43,0,0,0-4.3-3.39,16.81,16.81,0,0,0-6.47-1.14,16.49,16.49,0,0,0-6.42,1.13,9.15,9.15,0,0,0-4.08,3.2,8.49,8.49,0,0,0-1.44,4.89,8.28,8.28,0,0,0,.7,3.4A7.65,7.65,0,0,0,241.69,1176.11Z"/>
            <path fill="#000000" d="M225,1185.57a7.31,7.31,0,0,1-4.16,1.18,7.72,7.72,0,0,1-2.45-.38,6.27,6.27,0,0,1-2-1.08,5.71,5.71,0,0,1-1.42-1.7,6.52,6.52,0,0,1-.74-2.27H207.6a13,13,0,0,0,1.43,4.74,11.32,11.32,0,0,0,2.89,3.5,12.53,12.53,0,0,0,4.06,2.19,15.86,15.86,0,0,0,5,.75,14.44,14.44,0,0,0,7.3-1.86,13.13,13.13,0,0,0,5.13-5.38,20.36,20.36,0,0,0,0-17.09,13.09,13.09,0,0,0-5.1-5.39,14.5,14.5,0,0,0-7.35-1.86,14.79,14.79,0,0,0-5.31.89,12.45,12.45,0,0,0-6.77,5.93,12,12,0,0,0-1.26,4.07l6.57,0a6.57,6.57,0,0,1,.8-2.19,6,6,0,0,1,1.45-1.63,6.44,6.44,0,0,1,2-1,8.2,8.2,0,0,1,2.43-.34,7.38,7.38,0,0,1,4.09,1.14,7.46,7.46,0,0,1,2.76,3.37,13.86,13.86,0,0,1,1,5.53,13.64,13.64,0,0,1-1,5.44A7.7,7.7,0,0,1,225,1185.57Z"/>
            <path fill="#000000" d="M194.55,1192.08l10.61-30.74h-7l-2.28,7h-11.1l-2.28-7h-7l10.6,30.74Zm-.28-18.66-3.79,11.63h-.24l-3.77-11.63Z"/>
            <polygon fill="#000000" points="152.64 1172.74 152.91 1172.74 166.18 1192.08 171.88 1192.08 171.88 1161.34 165.38 1161.34 165.38 1180.68 165.16 1180.68 151.78 1161.34 146.17 1161.34 146.17 1192.08 152.64 1192.08 152.64 1172.74"/>
            <polygon fill="#000000" points="114.17 1171.42 114.53 1171.42 122.99 1192.08 131.01 1192.08 131.01 1161.34 124.7 1161.34 124.7 1181.42 124.45 1181.42 116.5 1161.49 112.2 1161.49 104.25 1181.35 103.99 1181.35 103.99 1161.34 97.69 1161.34 97.69 1192.08 105.7 1192.08 114.17 1171.42"/>
            <polygon fill="#000000" points="85.84 1166.69 85.84 1174.04 72.69 1174.04 72.69 1179.39 85.84 1179.39 85.84 1186.72 71.63 1186.72 71.63 1192.08 92.34 1192.08 92.34 1161.34 71.57 1161.34 71.57 1166.69 85.84 1166.69"/>
            <circle fill="#000000" cx="311.65" cy="1176.71" r="5.28"/>
            <circle fill="#000000" cx="23.3" cy="1176.71" r="5.28"/>
            <path fill="#000000" d="M23.9,1106.72a11.12,11.12,0,0,0-1.85,2.92,19.47,19.47,0,0,0-1.2,3.69l-.66,2.76a14.43,14.43,0,0,1-.55,1.89,7.55,7.55,0,0,1-.76,1.56,3.45,3.45,0,0,1-1.06,1.06,2.45,2.45,0,0,1-1.44.35,2.92,2.92,0,0,1-1.77-.57,3.8,3.8,0,0,1-1.23-1.68,7.26,7.26,0,0,1-.44-2.68,6.12,6.12,0,0,1,1-3.71,3.84,3.84,0,0,1,2.83-1.55v-6.23a8.64,8.64,0,0,0-4.84,1.47,9.43,9.43,0,0,0-3.25,4,14.09,14.09,0,0,0-1.17,6,14.5,14.5,0,0,0,1.17,6,10,10,0,0,0,3.25,4.16,8.07,8.07,0,0,0,4.88,1.49,6.87,6.87,0,0,0,5.42-2.24,14.05,14.05,0,0,0,3-6.14l.84-3.35a18.42,18.42,0,0,1,.9-2.84,4.66,4.66,0,0,1,1.2-1.77,2.55,2.55,0,0,1,1.74-.61,3.1,3.1,0,0,1,2,.68,4.37,4.37,0,0,1,1.33,1.9,7.81,7.81,0,0,1,.48,2.87,8.37,8.37,0,0,1-.51,3,4.81,4.81,0,0,1-1.55,2.12,4.69,4.69,0,0,1-2.57.89v6.29a10.08,10.08,0,0,0,5.56-1.61,9.48,9.48,0,0,0,3.38-4.3,16.81,16.81,0,0,0,1.14-6.47,16.24,16.24,0,0,0-1.13-6.42,9.08,9.08,0,0,0-3.2-4.08,8.44,8.44,0,0,0-4.88-1.44,8.17,8.17,0,0,0-3.41.7A7.68,7.68,0,0,0,23.9,1106.72Z"/>
            <path fill="#000000" d="M14.43,1090a7.38,7.38,0,0,1-1.18-4.16,7.83,7.83,0,0,1,.38-2.46,6.33,6.33,0,0,1,1.08-2,5.87,5.87,0,0,1,1.7-1.43,6.57,6.57,0,0,1,2.28-.73v-6.58a13.14,13.14,0,0,0-4.75,1.44,11.43,11.43,0,0,0-3.5,2.89A12.5,12.5,0,0,0,8.26,1081a15.82,15.82,0,0,0-.75,5,14.37,14.37,0,0,0,1.85,7.29,13.15,13.15,0,0,0,5.38,5.14,17.9,17.9,0,0,0,8.56,1.89,18,18,0,0,0,8.54-1.87,13.22,13.22,0,0,0,5.39-5.1,14.5,14.5,0,0,0,1.86-7.35,15,15,0,0,0-.89-5.31,12.73,12.73,0,0,0-2.44-4.05,12.3,12.3,0,0,0-3.49-2.72,12.1,12.1,0,0,0-4.08-1.27l0,6.58a6.57,6.57,0,0,1,2.19.8,5.82,5.82,0,0,1,1.63,1.45,6.13,6.13,0,0,1,1,2,8.13,8.13,0,0,1,.35,2.42,7.41,7.41,0,0,1-1.14,4.1,7.49,7.49,0,0,1-3.38,2.76,13.81,13.81,0,0,1-5.52,1,13.57,13.57,0,0,1-5.44-1A7.64,7.64,0,0,1,14.43,1090Z"/>
            <path fill="#000000" d="M7.93,1059.59l30.74,10.61v-7l-7-2.28v-11.1l7-2.28v-7L7.93,1051.21Zm18.65-.28L15,1055.52v-.24l11.63-3.78Z"/>
            <polygon fill="#000000" points="27.26 1017.68 27.26 1017.95 7.92 1031.22 7.92 1036.92 38.67 1036.92 38.67 1030.42 19.32 1030.42 19.32 1030.2 38.67 1016.82 38.67 1011.21 7.92 1011.21 7.92 1017.68 27.26 1017.68"/>
            <polygon fill="#000000" points="28.58 979.21 28.58 979.57 7.92 988.03 7.92 996.05 38.67 996.05 38.67 989.74 18.58 989.74 18.58 989.49 38.52 981.53 38.52 977.24 18.66 969.28 18.66 969.03 38.67 969.03 38.67 962.72 7.92 962.72 7.92 970.74 28.58 979.21"/>
            <polygon fill="#000000" points="33.31 950.88 25.97 950.88 25.97 937.73 20.61 937.73 20.61 950.88 13.28 950.88 13.28 936.66 7.92 936.66 7.92 957.38 38.67 957.38 38.67 936.61 33.31 936.61 33.31 950.88"/>
            <path fill="#000000" d="M23.9,818.37a11.12,11.12,0,0,0-1.85,2.92,19.47,19.47,0,0,0-1.2,3.69l-.66,2.76a14.43,14.43,0,0,1-.55,1.89,7.55,7.55,0,0,1-.76,1.56,3.45,3.45,0,0,1-1.06,1.06,2.45,2.45,0,0,1-1.44.35,2.92,2.92,0,0,1-1.77-.57,3.8,3.8,0,0,1-1.23-1.68,7.26,7.26,0,0,1-.44-2.68,6.12,6.12,0,0,1,1-3.71,3.84,3.84,0,0,1,2.83-1.55v-6.23a8.64,8.64,0,0,0-4.84,1.47,9.43,9.43,0,0,0-3.25,4,14.09,14.09,0,0,0-1.17,6,14.5,14.5,0,0,0,1.17,6,10,10,0,0,0,3.25,4.16,8.07,8.07,0,0,0,4.88,1.49A6.87,6.87,0,0,0,22.23,837a14.05,14.05,0,0,0,3-6.14l.84-3.34a18.23,18.23,0,0,1,.9-2.85,4.74,4.74,0,0,1,1.2-1.77,2.55,2.55,0,0,1,1.74-.61,3.1,3.1,0,0,1,2,.68,4.37,4.37,0,0,1,1.33,1.9,7.81,7.81,0,0,1,.48,2.87,8.37,8.37,0,0,1-.51,3,4.81,4.81,0,0,1-1.55,2.12,4.69,4.69,0,0,1-2.57.89v6.29a10.08,10.08,0,0,0,5.56-1.61,9.48,9.48,0,0,0,3.38-4.3,16.81,16.81,0,0,0,1.14-6.47A16.24,16.24,0,0,0,38,821.28a9.08,9.08,0,0,0-3.2-4.08,8.44,8.44,0,0,0-4.88-1.44,8.17,8.17,0,0,0-3.41.7A7.68,7.68,0,0,0,23.9,818.37Z"/>
            <path fill="#000000" d="M14.43,801.64a7.38,7.38,0,0,1-1.18-4.16,7.83,7.83,0,0,1,.38-2.46,6.33,6.33,0,0,1,1.08-2,5.87,5.87,0,0,1,1.7-1.43,6.57,6.57,0,0,1,2.28-.73v-6.58a13.14,13.14,0,0,0-4.75,1.44,11.43,11.43,0,0,0-3.5,2.89,12.5,12.5,0,0,0-2.18,4.06,15.82,15.82,0,0,0-.75,5,14.37,14.37,0,0,0,1.85,7.29,13.15,13.15,0,0,0,5.38,5.14A17.9,17.9,0,0,0,23.3,812a18,18,0,0,0,8.54-1.87,13.22,13.22,0,0,0,5.39-5.1,14.5,14.5,0,0,0,1.86-7.35,15,15,0,0,0-.89-5.31,12.84,12.84,0,0,0-2.44-4.05,12.3,12.3,0,0,0-3.49-2.72,12.1,12.1,0,0,0-4.08-1.27l0,6.58a6.57,6.57,0,0,1,2.19.8A5.82,5.82,0,0,1,32,793.11a6.13,6.13,0,0,1,1,2,8.18,8.18,0,0,1,.35,2.42,7.41,7.41,0,0,1-1.14,4.1,7.49,7.49,0,0,1-3.38,2.76,13.81,13.81,0,0,1-5.52,1,13.57,13.57,0,0,1-5.44-1A7.64,7.64,0,0,1,14.43,801.64Z"/>
            <path fill="#000000" d="M7.93,771.24l30.74,10.61v-7l-7-2.28v-11.1l7-2.28v-7L7.93,762.86ZM26.58,771,15,767.17v-.24l11.63-3.78Z"/>
            <polygon fill="#000000" points="27.26 729.33 27.26 729.6 7.92 742.87 7.92 748.57 38.67 748.57 38.67 742.07 19.32 742.07 19.32 741.85 38.67 728.47 38.67 722.86 7.92 722.86 7.92 729.33 27.26 729.33"/>
            <polygon fill="#000000" points="28.58 690.86 28.58 691.22 7.92 699.68 7.92 707.7 38.67 707.7 38.67 701.39 18.58 701.39 18.58 701.14 38.52 693.18 38.52 688.89 18.66 680.93 18.66 680.68 38.67 680.68 38.67 674.37 7.92 674.37 7.92 682.39 28.58 690.86"/>
            <polygon fill="#000000" points="33.31 662.53 25.97 662.53 25.97 649.38 20.61 649.38 20.61 662.53 13.28 662.53 13.28 648.32 7.92 648.32 7.92 669.03 38.67 669.03 38.67 648.25 33.31 648.25 33.31 662.53"/>
            <circle fill="#000000" cx="23.3" cy="888.34" r="5.28"/>
            <path fill="#000000" d="M23.9,530a11.28,11.28,0,0,0-1.85,2.92,19.47,19.47,0,0,0-1.2,3.69l-.66,2.76a14.43,14.43,0,0,1-.55,1.89,7.55,7.55,0,0,1-.76,1.56,3.45,3.45,0,0,1-1.06,1.06,2.45,2.45,0,0,1-1.44.35,2.92,2.92,0,0,1-1.77-.57A3.8,3.8,0,0,1,13.38,542a7.26,7.26,0,0,1-.44-2.68,6.12,6.12,0,0,1,1-3.71,3.84,3.84,0,0,1,2.83-1.55v-6.23a8.64,8.64,0,0,0-4.84,1.47,9.43,9.43,0,0,0-3.25,4,14.09,14.09,0,0,0-1.17,6,14.5,14.5,0,0,0,1.17,6,10,10,0,0,0,3.25,4.16,8.07,8.07,0,0,0,4.88,1.49,6.87,6.87,0,0,0,5.42-2.24,14.05,14.05,0,0,0,3-6.14L26,539.2a18.23,18.23,0,0,1,.9-2.85,4.74,4.74,0,0,1,1.2-1.77,2.55,2.55,0,0,1,1.74-.61,3.1,3.1,0,0,1,2,.68,4.37,4.37,0,0,1,1.33,1.9,7.81,7.81,0,0,1,.48,2.87,8.37,8.37,0,0,1-.51,3,4.81,4.81,0,0,1-1.55,2.12,4.69,4.69,0,0,1-2.57.89v6.29a10.08,10.08,0,0,0,5.56-1.61,9.48,9.48,0,0,0,3.38-4.3,16.81,16.81,0,0,0,1.14-6.47A16.24,16.24,0,0,0,38,532.93a9.08,9.08,0,0,0-3.2-4.08,8.44,8.44,0,0,0-4.88-1.44,8.17,8.17,0,0,0-3.41.7A7.68,7.68,0,0,0,23.9,530Z"/>
            <path fill="#000000" d="M14.43,513.29a7.38,7.38,0,0,1-1.18-4.16,7.83,7.83,0,0,1,.38-2.46,6.33,6.33,0,0,1,1.08-2,5.87,5.87,0,0,1,1.7-1.43,6.57,6.57,0,0,1,2.28-.73v-6.58a13.14,13.14,0,0,0-4.75,1.44,11.43,11.43,0,0,0-3.5,2.89,12.5,12.5,0,0,0-2.18,4.06,15.82,15.82,0,0,0-.75,5,14.37,14.37,0,0,0,1.85,7.29,13.15,13.15,0,0,0,5.38,5.14,17.9,17.9,0,0,0,8.56,1.89,18,18,0,0,0,8.54-1.87,13.22,13.22,0,0,0,5.39-5.1,14.5,14.5,0,0,0,1.86-7.35A15,15,0,0,0,38.2,504a12.84,12.84,0,0,0-2.44-4.05,12.3,12.3,0,0,0-3.49-2.72,12.1,12.1,0,0,0-4.08-1.27l0,6.58a6.57,6.57,0,0,1,2.19.8A5.82,5.82,0,0,1,32,504.76a6.13,6.13,0,0,1,1,2,8.18,8.18,0,0,1,.35,2.42,7.41,7.41,0,0,1-1.14,4.1A7.49,7.49,0,0,1,28.82,516a13.81,13.81,0,0,1-5.52,1,13.57,13.57,0,0,1-5.44-1A7.64,7.64,0,0,1,14.43,513.29Z"/>
            <path fill="#000000" d="M7.93,482.89,38.67,493.5v-7l-7-2.28v-11.1l7-2.28v-7L7.93,474.51Zm18.65-.28L15,478.82v-.24l11.63-3.78Z"/>
            <polygon fill="#000000" points="27.26 440.98 27.26 441.25 7.92 454.52 7.92 460.22 38.67 460.22 38.67 453.72 19.32 453.72 19.32 453.5 38.67 440.12 38.67 434.51 7.92 434.51 7.92 440.98 27.26 440.98"/>
            <polygon fill="#000000" points="28.58 402.51 28.58 402.87 7.92 411.33 7.92 419.35 38.67 419.35 38.67 413.04 18.58 413.04 18.58 412.79 38.52 404.83 38.52 400.54 18.66 392.58 18.66 392.33 38.67 392.33 38.67 386.02 7.92 386.02 7.92 394.04 28.58 402.51"/>
            <polygon fill="#000000" points="33.31 374.18 25.97 374.18 25.97 361.03 20.61 361.03 20.61 374.18 13.28 374.18 13.28 359.96 7.92 359.96 7.92 380.68 38.67 380.68 38.67 359.9 33.31 359.9 33.31 374.18"/>
            <circle fill="#000000" cx="23.3" cy="599.99" r="5.28"/>
            <path fill="#000000" d="M23.9,241.67a11.28,11.28,0,0,0-1.85,2.92,19.47,19.47,0,0,0-1.2,3.69L20.19,251a14.43,14.43,0,0,1-.55,1.89,7.55,7.55,0,0,1-.76,1.56,3.45,3.45,0,0,1-1.06,1.06,2.45,2.45,0,0,1-1.44.35,2.92,2.92,0,0,1-1.77-.57,3.8,3.8,0,0,1-1.23-1.68,7.26,7.26,0,0,1-.44-2.68,6.12,6.12,0,0,1,1-3.71,3.84,3.84,0,0,1,2.83-1.55v-6.23A8.64,8.64,0,0,0,11.93,241a9.43,9.43,0,0,0-3.25,4,14.09,14.09,0,0,0-1.17,6,14.58,14.58,0,0,0,1.17,6,10,10,0,0,0,3.25,4.15,8.07,8.07,0,0,0,4.88,1.49,6.87,6.87,0,0,0,5.42-2.24,14.05,14.05,0,0,0,3-6.14l.84-3.34a18.23,18.23,0,0,1,.9-2.85,4.74,4.74,0,0,1,1.2-1.77,2.55,2.55,0,0,1,1.74-.61,3.1,3.1,0,0,1,2,.68,4.37,4.37,0,0,1,1.33,1.9,7.81,7.81,0,0,1,.48,2.87,8.37,8.37,0,0,1-.51,3,4.81,4.81,0,0,1-1.55,2.12,4.69,4.69,0,0,1-2.57.89v6.29a10.08,10.08,0,0,0,5.56-1.61,9.48,9.48,0,0,0,3.38-4.3A16.81,16.81,0,0,0,39.1,251,16.24,16.24,0,0,0,38,244.58a9.08,9.08,0,0,0-3.2-4.08,8.44,8.44,0,0,0-4.88-1.44,8.17,8.17,0,0,0-3.41.7A7.82,7.82,0,0,0,23.9,241.67Z"/>
            <path fill="#000000" d="M14.43,224.94a7.38,7.38,0,0,1-1.18-4.16,7.83,7.83,0,0,1,.38-2.46,6.33,6.33,0,0,1,1.08-2,5.87,5.87,0,0,1,1.7-1.43,6.57,6.57,0,0,1,2.28-.73v-6.58A13.14,13.14,0,0,0,13.94,209a11.43,11.43,0,0,0-3.5,2.89A12.5,12.5,0,0,0,8.26,216a15.82,15.82,0,0,0-.75,5,14.37,14.37,0,0,0,1.85,7.29,13.15,13.15,0,0,0,5.38,5.14,17.9,17.9,0,0,0,8.56,1.89,18,18,0,0,0,8.54-1.87,13.22,13.22,0,0,0,5.39-5.1,14.5,14.5,0,0,0,1.86-7.35,15,15,0,0,0-.89-5.31,12.84,12.84,0,0,0-2.44-4.05,12.3,12.3,0,0,0-3.49-2.72,12.1,12.1,0,0,0-4.08-1.27l0,6.58a6.57,6.57,0,0,1,2.19.8A5.82,5.82,0,0,1,32,216.41a6.13,6.13,0,0,1,1,2,8.18,8.18,0,0,1,.35,2.42,7.41,7.41,0,0,1-1.14,4.1,7.49,7.49,0,0,1-3.38,2.76,13.81,13.81,0,0,1-5.52,1,13.57,13.57,0,0,1-5.44-1A7.64,7.64,0,0,1,14.43,224.94Z"/>
            <path fill="#000000" d="M7.93,194.54l30.74,10.61v-7l-7-2.28v-11.1l7-2.28v-7L7.93,186.16Zm18.65-.28L15,190.47v-.24l11.63-3.78Z"/>
            <polygon fill="#000000" points="27.26 152.63 27.26 152.9 7.92 166.17 7.92 171.87 38.67 171.87 38.67 165.37 19.32 165.37 19.32 165.15 38.67 151.77 38.67 146.16 7.92 146.16 7.92 152.63 27.26 152.63"/>
            <polygon fill="#000000" points="28.58 114.16 28.58 114.52 7.92 122.98 7.92 131 38.67 131 38.67 124.69 18.58 124.69 18.58 124.44 38.52 116.48 38.52 112.19 18.66 104.23 18.66 103.98 38.67 103.98 38.67 97.67 7.92 97.67 7.92 105.69 28.58 114.16"/>
            <polygon fill="#000000" points="33.31 85.83 25.97 85.83 25.97 72.68 20.61 72.68 20.61 85.83 13.28 85.83 13.28 71.61 7.92 71.61 7.92 92.33 38.67 92.33 38.67 71.56 33.31 71.56 33.31 85.83"/>
            <circle fill="#000000" cx="23.3" cy="311.64" r="5.28"/>
            <path transform="translate(100 100)" x="0" y="0" style="fill:#000000;shape-rendering:crispEdges;" d="M0,0 V34.48 H34.48 V0 H0 Z M34.48,0 V34.48 H68.97 V0 H34.48 Z M68.97,0 V34.48 H103.45 V0 H68.97 Z M103.45,0 V34.48 H137.93 V0 H103.45 Z M137.93,0 V34.48 H172.41 V0 H137.93 Z M172.41,0 V34.48 H206.90 V0 H172.41 Z M206.90,0 V34.48 H241.38 V0 H206.90 Z M275.86,0 V34.48 H310.34 V0 H275.86 Z M344.83,0 V34.48 H379.31 V0 H344.83 Z M482.76,0 V34.48 H517.24 V0 H482.76 Z M517.24,0 V34.48 H551.72 V0 H517.24 Z M551.72,0 V34.48 H586.21 V0 H551.72 Z M620.69,0 V34.48 H655.17 V0 H620.69 Z M689.66,0 V34.48 H724.14 V0 H689.66 Z M758.62,0 V34.48 H793.10 V0 H758.62 Z M793.10,0 V34.48 H827.59 V0 H793.10 Z M827.59,0 V34.48 H862.07 V0 H827.59 Z M862.07,0 V34.48 H896.55 V0 H862.07 Z M896.55,0 V34.48 H931.03 V0 H896.55 Z M931.03,0 V34.48 H965.52 V0 H931.03 Z M965.52,0 V34.48 H1000.00 V0 H965.52 Z M0,34.48 V68.97 H34.48 V34.48 H0 Z M206.90,34.48 V68.97 H241.38 V34.48 H206.90 Z M344.83,34.48 V68.97 H379.31 V34.48 H344.83 Z M448.28,34.48 V68.97 H482.76 V34.48 H448.28 Z M482.76,34.48 V68.97 H517.24 V34.48 H482.76 Z M551.72,34.48 V68.97 H586.21 V34.48 H551.72 Z M655.17,34.48 V68.97 H689.66 V34.48 H655.17 Z M758.62,34.48 V68.97 H793.10 V34.48 H758.62 Z M965.52,34.48 V68.97 H1000.00 V34.48 H965.52 Z M0,68.97 V103.45 H34.48 V68.97 H0 Z M68.97,68.97 V103.45 H103.45 V68.97 H68.97 Z M103.45,68.97 V103.45 H137.93 V68.97 H103.45 Z M137.93,68.97 V103.45 H172.41 V68.97 H137.93 Z M206.90,68.97 V103.45 H241.38 V68.97 H206.90 Z M275.86,68.97 V103.45 H310.34 V68.97 H275.86 Z M310.34,68.97 V103.45 H344.83 V68.97 H310.34 Z M344.83,68.97 V103.45 H379.31 V68.97 H344.83 Z M379.31,68.97 V103.45 H413.79 V68.97 H379.31 Z M413.79,68.97 V103.45 H448.28 V68.97 H413.79 Z M517.24,68.97 V103.45 H551.72 V68.97 H517.24 Z M586.21,68.97 V103.45 H620.69 V68.97 H586.21 Z M655.17,68.97 V103.45 H689.66 V68.97 H655.17 Z M689.66,68.97 V103.45 H724.14 V68.97 H689.66 Z M758.62,68.97 V103.45 H793.10 V68.97 H758.62 Z M827.59,68.97 V103.45 H862.07 V68.97 H827.59 Z M862.07,68.97 V103.45 H896.55 V68.97 H862.07 Z M896.55,68.97 V103.45 H931.03 V68.97 H896.55 Z M965.52,68.97 V103.45 H1000.00 V68.97 H965.52 Z M0,103.45 V137.93 H34.48 V103.45 H0 Z M68.97,103.45 V137.93 H103.45 V103.45 H68.97 Z M103.45,103.45 V137.93 H137.93 V103.45 H103.45 Z M137.93,103.45 V137.93 H172.41 V103.45 H137.93 Z M206.90,103.45 V137.93 H241.38 V103.45 H206.90 Z M379.31,103.45 V137.93 H413.79 V103.45 H379.31 Z M655.17,103.45 V137.93 H689.66 V103.45 H655.17 Z M758.62,103.45 V137.93 H793.10 V103.45 H758.62 Z M827.59,103.45 V137.93 H862.07 V103.45 H827.59 Z M862.07,103.45 V137.93 H896.55 V103.45 H862.07 Z M896.55,103.45 V137.93 H931.03 V103.45 H896.55 Z M965.52,103.45 V137.93 H1000.00 V103.45 H965.52 Z M0,137.93 V172.41 H34.48 V137.93 H0 Z M68.97,137.93 V172.41 H103.45 V137.93 H68.97 Z M103.45,137.93 V172.41 H137.93 V137.93 H103.45 Z M137.93,137.93 V172.41 H172.41 V137.93 H137.93 Z M206.90,137.93 V172.41 H241.38 V137.93 H206.90 Z M275.86,137.93 V172.41 H310.34 V137.93 H275.86 Z M344.83,137.93 V172.41 H379.31 V137.93 H344.83 Z M448.28,137.93 V172.41 H482.76 V137.93 H448.28 Z M482.76,137.93 V172.41 H517.24 V137.93 H482.76 Z M517.24,137.93 V172.41 H551.72 V137.93 H517.24 Z M551.72,137.93 V172.41 H586.21 V137.93 H551.72 Z M586.21,137.93 V172.41 H620.69 V137.93 H586.21 Z M655.17,137.93 V172.41 H689.66 V137.93 H655.17 Z M689.66,137.93 V172.41 H724.14 V137.93 H689.66 Z M758.62,137.93 V172.41 H793.10 V137.93 H758.62 Z M827.59,137.93 V172.41 H862.07 V137.93 H827.59 Z M862.07,137.93 V172.41 H896.55 V137.93 H862.07 Z M896.55,137.93 V172.41 H931.03 V137.93 H896.55 Z M965.52,137.93 V172.41 H1000.00 V137.93 H965.52 Z M0,172.41 V206.90 H34.48 V172.41 H0 Z M206.90,172.41 V206.90 H241.38 V172.41 H206.90 Z M379.31,172.41 V206.90 H413.79 V172.41 H379.31 Z M517.24,172.41 V206.90 H551.72 V172.41 H517.24 Z M551.72,172.41 V206.90 H586.21 V172.41 H551.72 Z M689.66,172.41 V206.90 H724.14 V172.41 H689.66 Z M758.62,172.41 V206.90 H793.10 V172.41 H758.62 Z M965.52,172.41 V206.90 H1000.00 V172.41 H965.52 Z M0,206.90 V241.38 H34.48 V206.90 H0 Z M34.48,206.90 V241.38 H68.97 V206.90 H34.48 Z M68.97,206.90 V241.38 H103.45 V206.90 H68.97 Z M103.45,206.90 V241.38 H137.93 V206.90 H103.45 Z M137.93,206.90 V241.38 H172.41 V206.90 H137.93 Z M172.41,206.90 V241.38 H206.90 V206.90 H172.41 Z M206.90,206.90 V241.38 H241.38 V206.90 H206.90 Z M275.86,206.90 V241.38 H310.34 V206.90 H275.86 Z M344.83,206.90 V241.38 H379.31 V206.90 H344.83 Z M413.79,206.90 V241.38 H448.28 V206.90 H413.79 Z M482.76,206.90 V241.38 H517.24 V206.90 H482.76 Z M551.72,206.90 V241.38 H586.21 V206.90 H551.72 Z M620.69,206.90 V241.38 H655.17 V206.90 H620.69 Z M689.66,206.90 V241.38 H724.14 V206.90 H689.66 Z M758.62,206.90 V241.38 H793.10 V206.90 H758.62 Z M793.10,206.90 V241.38 H827.59 V206.90 H793.10 Z M827.59,206.90 V241.38 H862.07 V206.90 H827.59 Z M862.07,206.90 V241.38 H896.55 V206.90 H862.07 Z M896.55,206.90 V241.38 H931.03 V206.90 H896.55 Z M931.03,206.90 V241.38 H965.52 V206.90 H931.03 Z M965.52,206.90 V241.38 H1000.00 V206.90 H965.52 Z M310.34,241.38 V275.86 H344.83 V241.38 H310.34 Z M379.31,241.38 V275.86 H413.79 V241.38 H379.31 Z M448.28,241.38 V275.86 H482.76 V241.38 H448.28 Z M482.76,241.38 V275.86 H517.24 V241.38 H482.76 Z M655.17,241.38 V275.86 H689.66 V241.38 H655.17 Z M689.66,241.38 V275.86 H724.14 V241.38 H689.66 Z M34.48,275.86 V310.34 H68.97 V275.86 H34.48 Z M137.93,275.86 V310.34 H172.41 V275.86 H137.93 Z M206.90,275.86 V310.34 H241.38 V275.86 H206.90 Z M310.34,275.86 V310.34 H344.83 V275.86 H310.34 Z M344.83,275.86 V310.34 H379.31 V275.86 H344.83 Z M379.31,275.86 V310.34 H413.79 V275.86 H379.31 Z M448.28,275.86 V310.34 H482.76 V275.86 H448.28 Z M482.76,275.86 V310.34 H517.24 V275.86 H482.76 Z M517.24,275.86 V310.34 H551.72 V275.86 H517.24 Z M689.66,275.86 V310.34 H724.14 V275.86 H689.66 Z M724.14,275.86 V310.34 H758.62 V275.86 H724.14 Z M827.59,275.86 V310.34 H862.07 V275.86 H827.59 Z M896.55,275.86 V310.34 H931.03 V275.86 H896.55 Z M965.52,275.86 V310.34 H1000.00 V275.86 H965.52 Z M0,310.34 V344.83 H34.48 V310.34 H0 Z M34.48,310.34 V344.83 H68.97 V310.34 H34.48 Z M68.97,310.34 V344.83 H103.45 V310.34 H68.97 Z M103.45,310.34 V344.83 H137.93 V310.34 H103.45 Z M172.41,310.34 V344.83 H206.90 V310.34 H172.41 Z M241.38,310.34 V344.83 H275.86 V310.34 H241.38 Z M344.83,310.34 V344.83 H379.31 V310.34 H344.83 Z M448.28,310.34 V344.83 H482.76 V310.34 H448.28 Z M517.24,310.34 V344.83 H551.72 V310.34 H517.24 Z M551.72,310.34 V344.83 H586.21 V310.34 H551.72 Z M586.21,310.34 V344.83 H620.69 V310.34 H586.21 Z M620.69,310.34 V344.83 H655.17 V310.34 H620.69 Z M655.17,310.34 V344.83 H689.66 V310.34 H655.17 Z M689.66,310.34 V344.83 H724.14 V310.34 H689.66 Z M758.62,310.34 V344.83 H793.10 V310.34 H758.62 Z M793.10,310.34 V344.83 H827.59 V310.34 H793.10 Z M862.07,310.34 V344.83 H896.55 V310.34 H862.07 Z M965.52,310.34 V344.83 H1000.00 V310.34 H965.52 Z M0,344.83 V379.31 H34.48 V344.83 H0 Z M68.97,344.83 V379.31 H103.45 V344.83 H68.97 Z M103.45,344.83 V379.31 H137.93 V344.83 H103.45 Z M172.41,344.83 V379.31 H206.90 V344.83 H172.41 Z M206.90,344.83 V379.31 H241.38 V344.83 H206.90 Z M241.38,344.83 V379.31 H275.86 V344.83 H241.38 Z M275.86,344.83 V379.31 H310.34 V344.83 H275.86 Z M379.31,344.83 V379.31 H413.79 V344.83 H379.31 Z M448.28,344.83 V379.31 H482.76 V344.83 H448.28 Z M517.24,344.83 V379.31 H551.72 V344.83 H517.24 Z M586.21,344.83 V379.31 H620.69 V344.83 H586.21 Z M620.69,344.83 V379.31 H655.17 V344.83 H620.69 Z M724.14,344.83 V379.31 H758.62 V344.83 H724.14 Z M827.59,344.83 V379.31 H862.07 V344.83 H827.59 Z M862.07,344.83 V379.31 H896.55 V344.83 H862.07 Z M896.55,344.83 V379.31 H931.03 V344.83 H896.55 Z M965.52,344.83 V379.31 H1000.00 V344.83 H965.52 Z M0,379.31 V413.79 H34.48 V379.31 H0 Z M34.48,379.31 V413.79 H68.97 V379.31 H34.48 Z M68.97,379.31 V413.79 H103.45 V379.31 H68.97 Z M103.45,379.31 V413.79 H137.93 V379.31 H103.45 Z M172.41,379.31 V413.79 H206.90 V379.31 H172.41 Z M241.38,379.31 V413.79 H275.86 V379.31 H241.38 Z M310.34,379.31 V413.79 H344.83 V379.31 H310.34 Z M482.76,379.31 V413.79 H517.24 V379.31 H482.76 Z M551.72,379.31 V413.79 H586.21 V379.31 H551.72 Z M689.66,379.31 V413.79 H724.14 V379.31 H689.66 Z M724.14,379.31 V413.79 H758.62 V379.31 H724.14 Z M758.62,379.31 V413.79 H793.10 V379.31 H758.62 Z M827.59,379.31 V413.79 H862.07 V379.31 H827.59 Z M862.07,379.31 V413.79 H896.55 V379.31 H862.07 Z M931.03,379.31 V413.79 H965.52 V379.31 H931.03 Z M965.52,379.31 V413.79 H1000.00 V379.31 H965.52 Z M34.48,413.79 V448.28 H68.97 V413.79 H34.48 Z M68.97,413.79 V448.28 H103.45 V413.79 H68.97 Z M103.45,413.79 V448.28 H137.93 V413.79 H103.45 Z M137.93,413.79 V448.28 H172.41 V413.79 H137.93 Z M206.90,413.79 V448.28 H241.38 V413.79 H206.90 Z M241.38,413.79 V448.28 H275.86 V413.79 H241.38 Z M275.86,413.79 V448.28 H310.34 V413.79 H275.86 Z M310.34,413.79 V448.28 H344.83 V413.79 H310.34 Z M379.31,413.79 V448.28 H413.79 V413.79 H379.31 Z M482.76,413.79 V448.28 H517.24 V413.79 H482.76 Z M551.72,413.79 V448.28 H586.21 V413.79 H551.72 Z M655.17,413.79 V448.28 H689.66 V413.79 H655.17 Z M689.66,413.79 V448.28 H724.14 V413.79 H689.66 Z M862.07,413.79 V448.28 H896.55 V413.79 H862.07 Z M931.03,413.79 V448.28 H965.52 V413.79 H931.03 Z M34.48,448.28 V482.76 H68.97 V448.28 H34.48 Z M103.45,448.28 V482.76 H137.93 V448.28 H103.45 Z M137.93,448.28 V482.76 H172.41 V448.28 H137.93 Z M310.34,448.28 V482.76 H344.83 V448.28 H310.34 Z M379.31,448.28 V482.76 H413.79 V448.28 H379.31 Z M482.76,448.28 V482.76 H517.24 V448.28 H482.76 Z M586.21,448.28 V482.76 H620.69 V448.28 H586.21 Z M655.17,448.28 V482.76 H689.66 V448.28 H655.17 Z M758.62,448.28 V482.76 H793.10 V448.28 H758.62 Z M931.03,448.28 V482.76 H965.52 V448.28 H931.03 Z M0,482.76 V517.24 H34.48 V482.76 H0 Z M172.41,482.76 V517.24 H206.90 V482.76 H172.41 Z M206.90,482.76 V517.24 H241.38 V482.76 H206.90 Z M344.83,482.76 V517.24 H379.31 V482.76 H344.83 Z M379.31,482.76 V517.24 H413.79 V482.76 H379.31 Z M413.79,482.76 V517.24 H448.28 V482.76 H413.79 Z M448.28,482.76 V517.24 H482.76 V482.76 H448.28 Z M620.69,482.76 V517.24 H655.17 V482.76 H620.69 Z M655.17,482.76 V517.24 H689.66 V482.76 H655.17 Z M689.66,482.76 V517.24 H724.14 V482.76 H689.66 Z M724.14,482.76 V517.24 H758.62 V482.76 H724.14 Z M931.03,482.76 V517.24 H965.52 V482.76 H931.03 Z M965.52,482.76 V517.24 H1000.00 V482.76 H965.52 Z M68.97,517.24 V551.72 H103.45 V517.24 H68.97 Z M172.41,517.24 V551.72 H206.90 V517.24 H172.41 Z M241.38,517.24 V551.72 H275.86 V517.24 H241.38 Z M310.34,517.24 V551.72 H344.83 V517.24 H310.34 Z M344.83,517.24 V551.72 H379.31 V517.24 H344.83 Z M413.79,517.24 V551.72 H448.28 V517.24 H413.79 Z M448.28,517.24 V551.72 H482.76 V517.24 H448.28 Z M517.24,517.24 V551.72 H551.72 V517.24 H517.24 Z M586.21,517.24 V551.72 H620.69 V517.24 H586.21 Z M620.69,517.24 V551.72 H655.17 V517.24 H620.69 Z M689.66,517.24 V551.72 H724.14 V517.24 H689.66 Z M724.14,517.24 V551.72 H758.62 V517.24 H724.14 Z M793.10,517.24 V551.72 H827.59 V517.24 H793.10 Z M862.07,517.24 V551.72 H896.55 V517.24 H862.07 Z M896.55,517.24 V551.72 H931.03 V517.24 H896.55 Z M965.52,517.24 V551.72 H1000.00 V517.24 H965.52 Z M103.45,551.72 V586.21 H137.93 V551.72 H103.45 Z M137.93,551.72 V586.21 H172.41 V551.72 H137.93 Z M172.41,551.72 V586.21 H206.90 V551.72 H172.41 Z M206.90,551.72 V586.21 H241.38 V551.72 H206.90 Z M275.86,551.72 V586.21 H310.34 V551.72 H275.86 Z M310.34,551.72 V586.21 H344.83 V551.72 H310.34 Z M344.83,551.72 V586.21 H379.31 V551.72 H344.83 Z M379.31,551.72 V586.21 H413.79 V551.72 H379.31 Z M551.72,551.72 V586.21 H586.21 V551.72 H551.72 Z M586.21,551.72 V586.21 H620.69 V551.72 H586.21 Z M620.69,551.72 V586.21 H655.17 V551.72 H620.69 Z M655.17,551.72 V586.21 H689.66 V551.72 H655.17 Z M827.59,551.72 V586.21 H862.07 V551.72 H827.59 Z M862.07,551.72 V586.21 H896.55 V551.72 H862.07 Z M896.55,551.72 V586.21 H931.03 V551.72 H896.55 Z M931.03,551.72 V586.21 H965.52 V551.72 H931.03 Z M965.52,551.72 V586.21 H1000.00 V551.72 H965.52 Z M34.48,586.21 V620.69 H68.97 V586.21 H34.48 Z M137.93,586.21 V620.69 H172.41 V586.21 H137.93 Z M241.38,586.21 V620.69 H275.86 V586.21 H241.38 Z M275.86,586.21 V620.69 H310.34 V586.21 H275.86 Z M379.31,586.21 V620.69 H413.79 V586.21 H379.31 Z M413.79,586.21 V620.69 H448.28 V586.21 H413.79 Z M482.76,586.21 V620.69 H517.24 V586.21 H482.76 Z M517.24,586.21 V620.69 H551.72 V586.21 H517.24 Z M551.72,586.21 V620.69 H586.21 V586.21 H551.72 Z M586.21,586.21 V620.69 H620.69 V586.21 H586.21 Z M620.69,586.21 V620.69 H655.17 V586.21 H620.69 Z M655.17,586.21 V620.69 H689.66 V586.21 H655.17 Z M689.66,586.21 V620.69 H724.14 V586.21 H689.66 Z M758.62,586.21 V620.69 H793.10 V586.21 H758.62 Z M793.10,586.21 V620.69 H827.59 V586.21 H793.10 Z M827.59,586.21 V620.69 H862.07 V586.21 H827.59 Z M931.03,586.21 V620.69 H965.52 V586.21 H931.03 Z M34.48,620.69 V655.17 H68.97 V620.69 H34.48 Z M103.45,620.69 V655.17 H137.93 V620.69 H103.45 Z M137.93,620.69 V655.17 H172.41 V620.69 H137.93 Z M206.90,620.69 V655.17 H241.38 V620.69 H206.90 Z M241.38,620.69 V655.17 H275.86 V620.69 H241.38 Z M344.83,620.69 V655.17 H379.31 V620.69 H344.83 Z M379.31,620.69 V655.17 H413.79 V620.69 H379.31 Z M413.79,620.69 V655.17 H448.28 V620.69 H413.79 Z M620.69,620.69 V655.17 H655.17 V620.69 H620.69 Z M655.17,620.69 V655.17 H689.66 V620.69 H655.17 Z M793.10,620.69 V655.17 H827.59 V620.69 H793.10 Z M931.03,620.69 V655.17 H965.52 V620.69 H931.03 Z M965.52,620.69 V655.17 H1000.00 V620.69 H965.52 Z M0,655.17 V689.66 H34.48 V655.17 H0 Z M34.48,655.17 V689.66 H68.97 V655.17 H34.48 Z M68.97,655.17 V689.66 H103.45 V655.17 H68.97 Z M137.93,655.17 V689.66 H172.41 V655.17 H137.93 Z M172.41,655.17 V689.66 H206.90 V655.17 H172.41 Z M379.31,655.17 V689.66 H413.79 V655.17 H379.31 Z M517.24,655.17 V689.66 H551.72 V655.17 H517.24 Z M655.17,655.17 V689.66 H689.66 V655.17 H655.17 Z M689.66,655.17 V689.66 H724.14 V655.17 H689.66 Z M724.14,655.17 V689.66 H758.62 V655.17 H724.14 Z M758.62,655.17 V689.66 H793.10 V655.17 H758.62 Z M896.55,655.17 V689.66 H931.03 V655.17 H896.55 Z M931.03,655.17 V689.66 H965.52 V655.17 H931.03 Z M965.52,655.17 V689.66 H1000.00 V655.17 H965.52 Z M34.48,689.66 V724.14 H68.97 V689.66 H34.48 Z M172.41,689.66 V724.14 H206.90 V689.66 H172.41 Z M206.90,689.66 V724.14 H241.38 V689.66 H206.90 Z M310.34,689.66 V724.14 H344.83 V689.66 H310.34 Z M379.31,689.66 V724.14 H413.79 V689.66 H379.31 Z M413.79,689.66 V724.14 H448.28 V689.66 H413.79 Z M448.28,689.66 V724.14 H482.76 V689.66 H448.28 Z M482.76,689.66 V724.14 H517.24 V689.66 H482.76 Z M517.24,689.66 V724.14 H551.72 V689.66 H517.24 Z M551.72,689.66 V724.14 H586.21 V689.66 H551.72 Z M586.21,689.66 V724.14 H620.69 V689.66 H586.21 Z M620.69,689.66 V724.14 H655.17 V689.66 H620.69 Z M655.17,689.66 V724.14 H689.66 V689.66 H655.17 Z M689.66,689.66 V724.14 H724.14 V689.66 H689.66 Z M724.14,689.66 V724.14 H758.62 V689.66 H724.14 Z M758.62,689.66 V724.14 H793.10 V689.66 H758.62 Z M793.10,689.66 V724.14 H827.59 V689.66 H793.10 Z M827.59,689.66 V724.14 H862.07 V689.66 H827.59 Z M896.55,689.66 V724.14 H931.03 V689.66 H896.55 Z M931.03,689.66 V724.14 H965.52 V689.66 H931.03 Z M965.52,689.66 V724.14 H1000.00 V689.66 H965.52 Z M310.34,724.14 V758.62 H344.83 V724.14 H310.34 Z M344.83,724.14 V758.62 H379.31 V724.14 H344.83 Z M413.79,724.14 V758.62 H448.28 V724.14 H413.79 Z M448.28,724.14 V758.62 H482.76 V724.14 H448.28 Z M482.76,724.14 V758.62 H517.24 V724.14 H482.76 Z M551.72,724.14 V758.62 H586.21 V724.14 H551.72 Z M586.21,724.14 V758.62 H620.69 V724.14 H586.21 Z M620.69,724.14 V758.62 H655.17 V724.14 H620.69 Z M655.17,724.14 V758.62 H689.66 V724.14 H655.17 Z M689.66,724.14 V758.62 H724.14 V724.14 H689.66 Z M827.59,724.14 V758.62 H862.07 V724.14 H827.59 Z M862.07,724.14 V758.62 H896.55 V724.14 H862.07 Z M0,758.62 V793.10 H34.48 V758.62 H0 Z M34.48,758.62 V793.10 H68.97 V758.62 H34.48 Z M68.97,758.62 V793.10 H103.45 V758.62 H68.97 Z M103.45,758.62 V793.10 H137.93 V758.62 H103.45 Z M137.93,758.62 V793.10 H172.41 V758.62 H137.93 Z M172.41,758.62 V793.10 H206.90 V758.62 H172.41 Z M206.90,758.62 V793.10 H241.38 V758.62 H206.90 Z M310.34,758.62 V793.10 H344.83 V758.62 H310.34 Z M413.79,758.62 V793.10 H448.28 V758.62 H413.79 Z M448.28,758.62 V793.10 H482.76 V758.62 H448.28 Z M482.76,758.62 V793.10 H517.24 V758.62 H482.76 Z M551.72,758.62 V793.10 H586.21 V758.62 H551.72 Z M586.21,758.62 V793.10 H620.69 V758.62 H586.21 Z M620.69,758.62 V793.10 H655.17 V758.62 H620.69 Z M689.66,758.62 V793.10 H724.14 V758.62 H689.66 Z M758.62,758.62 V793.10 H793.10 V758.62 H758.62 Z M827.59,758.62 V793.10 H862.07 V758.62 H827.59 Z M931.03,758.62 V793.10 H965.52 V758.62 H931.03 Z M0,793.10 V827.59 H34.48 V793.10 H0 Z M206.90,793.10 V827.59 H241.38 V793.10 H206.90 Z M344.83,793.10 V827.59 H379.31 V793.10 H344.83 Z M379.31,793.10 V827.59 H413.79 V793.10 H379.31 Z M517.24,793.10 V827.59 H551.72 V793.10 H517.24 Z M620.69,793.10 V827.59 H655.17 V793.10 H620.69 Z M689.66,793.10 V827.59 H724.14 V793.10 H689.66 Z M827.59,793.10 V827.59 H862.07 V793.10 H827.59 Z M862.07,793.10 V827.59 H896.55 V793.10 H862.07 Z M896.55,793.10 V827.59 H931.03 V793.10 H896.55 Z M965.52,793.10 V827.59 H1000.00 V793.10 H965.52 Z M0,827.59 V862.07 H34.48 V827.59 H0 Z M68.97,827.59 V862.07 H103.45 V827.59 H68.97 Z M103.45,827.59 V862.07 H137.93 V827.59 H103.45 Z M137.93,827.59 V862.07 H172.41 V827.59 H137.93 Z M206.90,827.59 V862.07 H241.38 V827.59 H206.90 Z M275.86,827.59 V862.07 H310.34 V827.59 H275.86 Z M344.83,827.59 V862.07 H379.31 V827.59 H344.83 Z M482.76,827.59 V862.07 H517.24 V827.59 H482.76 Z M517.24,827.59 V862.07 H551.72 V827.59 H517.24 Z M655.17,827.59 V862.07 H689.66 V827.59 H655.17 Z M689.66,827.59 V862.07 H724.14 V827.59 H689.66 Z M724.14,827.59 V862.07 H758.62 V827.59 H724.14 Z M758.62,827.59 V862.07 H793.10 V827.59 H758.62 Z M793.10,827.59 V862.07 H827.59 V827.59 H793.10 Z M827.59,827.59 V862.07 H862.07 V827.59 H827.59 Z M862.07,827.59 V862.07 H896.55 V827.59 H862.07 Z M896.55,827.59 V862.07 H931.03 V827.59 H896.55 Z M0,862.07 V896.55 H34.48 V862.07 H0 Z M68.97,862.07 V896.55 H103.45 V862.07 H68.97 Z M103.45,862.07 V896.55 H137.93 V862.07 H103.45 Z M137.93,862.07 V896.55 H172.41 V862.07 H137.93 Z M206.90,862.07 V896.55 H241.38 V862.07 H206.90 Z M310.34,862.07 V896.55 H344.83 V862.07 H310.34 Z M413.79,862.07 V896.55 H448.28 V862.07 H413.79 Z M448.28,862.07 V896.55 H482.76 V862.07 H448.28 Z M482.76,862.07 V896.55 H517.24 V862.07 H482.76 Z M517.24,862.07 V896.55 H551.72 V862.07 H517.24 Z M551.72,862.07 V896.55 H586.21 V862.07 H551.72 Z M586.21,862.07 V896.55 H620.69 V862.07 H586.21 Z M655.17,862.07 V896.55 H689.66 V862.07 H655.17 Z M758.62,862.07 V896.55 H793.10 V862.07 H758.62 Z M793.10,862.07 V896.55 H827.59 V862.07 H793.10 Z M896.55,862.07 V896.55 H931.03 V862.07 H896.55 Z M0,896.55 V931.03 H34.48 V896.55 H0 Z M68.97,896.55 V931.03 H103.45 V896.55 H68.97 Z M103.45,896.55 V931.03 H137.93 V896.55 H103.45 Z M137.93,896.55 V931.03 H172.41 V896.55 H137.93 Z M206.90,896.55 V931.03 H241.38 V896.55 H206.90 Z M344.83,896.55 V931.03 H379.31 V896.55 H344.83 Z M586.21,896.55 V931.03 H620.69 V896.55 H586.21 Z M724.14,896.55 V931.03 H758.62 V896.55 H724.14 Z M862.07,896.55 V931.03 H896.55 V896.55 H862.07 Z M0,931.03 V965.52 H34.48 V931.03 H0 Z M206.90,931.03 V965.52 H241.38 V931.03 H206.90 Z M275.86,931.03 V965.52 H310.34 V931.03 H275.86 Z M344.83,931.03 V965.52 H379.31 V931.03 H344.83 Z M379.31,931.03 V965.52 H413.79 V931.03 H379.31 Z M413.79,931.03 V965.52 H448.28 V931.03 H413.79 Z M482.76,931.03 V965.52 H517.24 V931.03 H482.76 Z M517.24,931.03 V965.52 H551.72 V931.03 H517.24 Z M551.72,931.03 V965.52 H586.21 V931.03 H551.72 Z M620.69,931.03 V965.52 H655.17 V931.03 H620.69 Z M655.17,931.03 V965.52 H689.66 V931.03 H655.17 Z M724.14,931.03 V965.52 H758.62 V931.03 H724.14 Z M758.62,931.03 V965.52 H793.10 V931.03 H758.62 Z M827.59,931.03 V965.52 H862.07 V931.03 H827.59 Z M931.03,931.03 V965.52 H965.52 V931.03 H931.03 Z M965.52,931.03 V965.52 H1000.00 V931.03 H965.52 Z M0,965.52 V1000.00 H34.48 V965.52 H0 Z M34.48,965.52 V1000.00 H68.97 V965.52 H34.48 Z M68.97,965.52 V1000.00 H103.45 V965.52 H68.97 Z M103.45,965.52 V1000.00 H137.93 V965.52 H103.45 Z M137.93,965.52 V1000.00 H172.41 V965.52 H137.93 Z M172.41,965.52 V1000.00 H206.90 V965.52 H172.41 Z M206.90,965.52 V1000.00 H241.38 V965.52 H206.90 Z M310.34,965.52 V1000.00 H344.83 V965.52 H310.34 Z M344.83,965.52 V1000.00 H379.31 V965.52 H344.83 Z M413.79,965.52 V1000.00 H448.28 V965.52 H413.79 Z M448.28,965.52 V1000.00 H482.76 V965.52 H448.28 Z M482.76,965.52 V1000.00 H517.24 V965.52 H482.76 Z M551.72,965.52 V1000.00 H586.21 V965.52 H551.72 Z M586.21,965.52 V1000.00 H620.69 V965.52 H586.21 Z M620.69,965.52 V1000.00 H655.17 V965.52 H620.69 Z M724.14,965.52 V1000.00 H758.62 V965.52 H724.14 Z M758.62,965.52 V1000.00 H793.10 V965.52 H758.62 Z M896.55,965.52 V1000.00 H931.03 V965.52 H896.55 Z M965.52,965.52 V1000.00 H1000.00 V965.52 H965.52 Z " />
          </svg>